<?xml version="1.0" standalone="no"?>
<!DOCTYPE svg PUBLIC "-//W3C//DTD SVG 1.1//EN" "http://www.w3.org/Graphics/SVG/1.1/DTD/svg11.dtd" >
<svg xmlns="http://www.w3.org/2000/svg" xmlns:xlink="http://www.w3.org/1999/xlink" version="1.1">
<metadata>
Created by FontForge 20170731 at Wed Dec  6 19:13:59 2017
 By nod
Copyright 2017 Google, Inc. All Rights Reserved.
</metadata>
<defs>
<font id="MaterialIcons-Regular" horiz-adv-x="512" >
  <font-face 
    font-family="Material Icons"
    font-weight="400"
    font-stretch="normal"
    units-per-em="512"
    panose-1="2 0 5 3 0 0 0 0 0 0"
    ascent="512"
    descent="0"
    bbox="0 0 512 512.5"
    underline-thickness="50"
    underline-position="-150"
    unicode-range="U+0030-10FFFD"
  />
<missing-glyph 
d="M17 0v341h136v-341h-136zM34 17h102v307h-102v-307z" />
    <glyph glyph-name="uniE000" unicode="error" 
d="M277 235v128h-42v-128h42zM277 149v43h-42v-43h42zM256 469q88 0 150.5 -62.5t62.5 -150.5t-62.5 -150.5t-150.5 -62.5t-150.5 62.5t-62.5 150.5t62.5 150.5t150.5 62.5z" />
    <glyph glyph-name="uniE001" unicode="error_outline" 
d="M256 85q70 0 120.5 50.5t50.5 120.5t-50.5 120.5t-120.5 50.5t-120.5 -50.5t-50.5 -120.5t50.5 -120.5t120.5 -50.5zM256 469q88 0 150.5 -62.5t62.5 -150.5t-62.5 -150.5t-150.5 -62.5t-150.5 62.5t-62.5 150.5t62.5 150.5t150.5 62.5zM235 363h42v-128h-42v128z
M235 192h42v-43h-42v43z" />
    <glyph glyph-name="uniE002" unicode="warning" 
d="M277 213v86h-42v-86h42zM277 128v43h-42v-43h42zM21 64l235 405l235 -405h-470z" />
    <glyph glyph-name="uniE003" unicode="add_alert" 
d="M341 234v43h-64v64h-42v-64h-64v-43h64v-64h42v64h64zM403 153l45 -45v-23h-384v23l45 45v124q0 51 32 91.5t81 51.5v15q0 14 10 24t24 10t24 -10t10 -24v-15q49 -11 81 -51.5t32 -91.5v-124zM214 64h84q0 -17 -12.5 -30t-29.5 -13t-29.5 13t-12.5 30z" />
    <glyph glyph-name="uniE004" unicode="notification_important" 
d="M256 43q-18 0 -30.5 12.5t-12.5 29.5h86q0 -17 -13 -29.5t-30 -12.5zM277 256v85h-42v-85h42zM277 171v42h-42v-42h42zM384 171l43 -43v-21h-342v21l43 43v106q0 50 25.5 87t70.5 48v15q0 13 9 22.5t23 9.5t23 -9.5t9 -22.5v-15q45 -11 70.5 -48t25.5 -87v-106z" />
    <glyph glyph-name="uniE019" unicode="album" 
d="M256 277q9 0 15 -6t6 -15t-6 -15t-15 -6t-15 6t-6 15t6 15t15 6zM256 160q40 0 68 28t28 68t-28 68t-68 28t-68 -28t-28 -68t28 -68t68 -28zM256 469q88 0 150.5 -62.5t62.5 -150.5t-62.5 -150.5t-150.5 -62.5t-150.5 62.5t-62.5 150.5t62.5 150.5t150.5 62.5z" />
    <glyph glyph-name="uniE01B" unicode="av_timer" 
d="M128 256q0 9 6 15t15 6t15.5 -6t6.5 -15t-6.5 -15t-15.5 -6t-15 6t-6 15zM384 256q0 -9 -6 -15t-15 -6t-15.5 6t-6.5 15t6.5 15t15.5 6t15 -6t6 -15zM235 448h21q80 0 136 -56t56 -136t-56 -136t-136 -56t-136 56t-56 136q0 96 77 153v1l145 -145l-30 -30l-116 115
q-33 -41 -33 -94q0 -62 43.5 -105.5t105.5 -43.5t105.5 43.5t43.5 105.5q0 56 -37 98t-91 50v-41h-42v85zM235 149q0 9 6 15.5t15 6.5t15 -6.5t6 -15.5t-6 -15t-15 -6t-15 6t-6 15z" />
    <glyph glyph-name="uniE01C" unicode="closed_caption" 
d="M384 277v22q0 9 -6 15t-15 6h-64q-9 0 -15.5 -6t-6.5 -15v-86q0 -9 6.5 -15t15.5 -6h64q9 0 15 6t6 15v22h-32v-11h-43v64h43v-11h32zM235 277v22q0 9 -6.5 15t-15.5 6h-64q-9 0 -15 -6t-6 -15v-86q0 -9 6 -15t15 -6h64q9 0 15.5 6t6.5 15v22h-32v-11h-43v64h43v-11h32z
M405 427q17 0 30 -13t13 -30v-256q0 -17 -13 -30t-30 -13h-298q-18 0 -30.5 13t-12.5 30v256q0 17 12.5 30t30.5 13h298z" />
    <glyph glyph-name="uniE01D" unicode="equalizer" 
d="M341 320h86v-235h-86v235zM85 85v171h86v-171h-86zM213 85v342h86v-342h-86z" />
    <glyph glyph-name="uniE01E" unicode="explicit" 
d="M320 320v43h-128v-214h128v43h-85v43h85v42h-85v43h85zM405 448q17 0 30 -13t13 -30v-298q0 -17 -13 -30t-30 -13h-298q-17 0 -30 13t-13 30v298q0 17 13 30t30 13h298z" />
    <glyph glyph-name="uniE01F" unicode="fast_forward" 
d="M277 384l182 -128l-182 -128v256zM85 128v256l182 -128z" />
    <glyph glyph-name="uniE020" unicode="fast_rewind" 
d="M245 256l182 128v-256zM235 128l-182 128l182 128v-256z" />
    <glyph glyph-name="uniE021" unicode="games" 
d="M352 320h117v-128h-117l-64 64zM192 160l64 64l64 -64v-117h-128v117zM160 320l64 -64l-64 -64h-117v128h117zM320 352l-64 -64l-64 64v117h128v-117z" />
    <glyph glyph-name="uniE023" unicode="hearing" 
d="M245 320q0 22 16 37.5t38 15.5t37.5 -15.5t15.5 -37.5t-15.5 -37.5t-37.5 -15.5t-38 15.5t-16 37.5zM163 456q-56 -56 -56 -136t56 -136l-30 -30q-69 69 -69 166t69 166zM363 85q17 0 29.5 13t12.5 30h43q0 -35 -25 -60t-60 -25q-20 0 -35 7q-41 21 -59 76q-7 22 -36 44
q-41 30 -61 67q-23 41 -23 83q0 63 43.5 106t106.5 43t106 -43t43 -106h-43q0 45 -30.5 76t-75.5 31t-76 -31t-31 -76q0 -32 17 -63q14 -27 50 -54q40 -30 51 -64q13 -38 36 -50q8 -4 17 -4z" />
    <glyph glyph-name="uniE024" unicode="high_quality" 
d="M309 224v64h43v-64h-43zM384 213v86q0 9 -6 15t-15 6h-64q-9 0 -15.5 -6t-6.5 -15v-86q0 -9 6.5 -15t15.5 -6h16v-32h32v32h16q9 0 15 6t6 15zM235 192v128h-32v-53h-43v53h-32v-128h32v43h43v-43h32zM405 427q17 0 30 -13t13 -30v-256q0 -17 -13 -30t-30 -13h-298
q-18 0 -30.5 13t-12.5 30v256q0 17 12.5 30t30.5 13h298z" />
    <glyph glyph-name="uniE028" unicode="loop" 
d="M256 128v64l85 -85l-85 -86v64q-70 0 -120.5 50.5t-50.5 120.5q0 50 27 91l31 -31q-15 -27 -15 -60q0 -53 37.5 -90.5t90.5 -37.5zM256 427q70 0 120.5 -50.5t50.5 -120.5q0 -50 -27 -91l-31 31q15 27 15 60q0 53 -37.5 90.5t-90.5 37.5v-64l-85 85l85 86v-64z" />
    <glyph glyph-name="uniE029" unicode="mic" 
d="M369 277h36q0 -54 -37.5 -94.5t-90.5 -48.5v-70h-42v70q-53 8 -90.5 48.5t-37.5 94.5h36q0 -47 33.5 -77.5t79.5 -30.5t79.5 30.5t33.5 77.5zM256 213q-26 0 -45 19t-19 45v128q0 26 19 45t45 19t45 -19t19 -45v-128q0 -26 -19 -45t-45 -19z" />
    <glyph glyph-name="uniE02A" unicode="mic_none" 
d="M369 277h36q0 -54 -37.5 -94.5t-90.5 -48.5v-70h-42v70q-53 8 -90.5 48.5t-37.5 94.5h36q0 -47 33.5 -77.5t79.5 -30.5t79.5 30.5t33.5 77.5zM230 407v-132q0 -10 7.5 -17.5t18.5 -7.5q10 0 17.5 7t7.5 18l1 132q0 11 -8 18.5t-18 7.5t-18 -7.5t-8 -18.5zM256 213
q-26 0 -45 19t-19 45v128q0 26 19 45t45 19t45 -19t19 -45v-128q0 -26 -19 -45t-45 -19z" />
    <glyph glyph-name="uniE02B" unicode="mic_off" 
d="M91 448l357 -357l-27 -27l-89 89q-22 -14 -55 -19v-70h-42v70q-53 8 -90.5 48.5t-37.5 94.5h36q0 -47 33.5 -77.5t79.5 -30.5q25 0 49 11l-35 35q-8 -2 -14 -2q-26 0 -45 19t-19 45v16l-128 128zM320 274l-128 127v4q0 26 19 45t45 19t45 -19t19 -45v-131zM405 277
q0 -37 -19 -70l-26 27q9 20 9 43h36z" />
    <glyph glyph-name="uniE02C" unicode="movie" 
d="M384 427h85v-299q0 -17 -12.5 -30t-29.5 -13h-342q-17 0 -29.5 13t-12.5 30v256q0 17 12.5 30t29.5 13h22l42 -86h64l-42 86h42l43 -86h64l-43 86h43l43 -86h64z" />
    <glyph glyph-name="uniE02E" unicode="library_add" 
d="M405 277v43h-85v85h-43v-85h-85v-43h85v-85h43v85h85zM427 469q17 0 29.5 -12.5t12.5 -29.5v-256q0 -17 -12.5 -30t-29.5 -13h-256q-17 0 -30 13t-13 30v256q0 17 13 29.5t30 12.5h256zM85 384v-299h299v-42h-299q-17 0 -29.5 12.5t-12.5 29.5v299h42z" />
    <glyph glyph-name="uniE02F" unicode="library_books" 
d="M405 363v42h-213v-42h213zM320 192v43h-128v-43h128zM405 277v43h-213v-43h213zM427 469q17 0 29.5 -12.5t12.5 -29.5v-256q0 -17 -12.5 -30t-29.5 -13h-256q-17 0 -30 13t-13 30v256q0 17 13 29.5t30 12.5h256zM85 384v-299h299v-42h-299q-17 0 -29.5 12.5t-12.5 29.5
v299h42z" />
    <glyph glyph-name="uniE030" unicode="library_music" 
d="M85 384v-299h299v-42h-299q-17 0 -29.5 12.5t-12.5 29.5v299h42zM384 363v42h-85v-117q-14 11 -32 11q-22 0 -38 -16t-16 -38t16 -37.5t38 -15.5t37.5 15.5t15.5 37.5v118h64zM427 469q17 0 29.5 -12.5t12.5 -29.5v-256q0 -17 -12.5 -30t-29.5 -13h-256q-17 0 -30 13
t-13 30v256q0 17 13 29.5t30 12.5h256z" />
    <glyph glyph-name="uniE031" unicode="new_releases" 
d="M277 235v128h-42v-128h42zM277 149v43h-42v-43h42zM491 256l-52 -59l7 -79l-77 -17l-40 -68l-73 31l-73 -31l-40 67l-77 18l7 79l-52 59l52 60l-7 78l77 17l40 68l73 -31l73 31l40 -68l77 -17l-7 -79z" />
    <glyph glyph-name="uniE033" unicode="not_interested" 
d="M391 151q36 45 36 105q0 70 -50.5 120.5t-120.5 50.5q-60 0 -105 -36zM256 85q60 0 105 36l-240 240q-36 -45 -36 -105q0 -70 50.5 -120.5t120.5 -50.5zM256 469q88 0 150.5 -62.5t62.5 -150.5t-62.5 -150.5t-150.5 -62.5t-150.5 62.5t-62.5 150.5t62.5 150.5t150.5 62.5
z" />
    <glyph glyph-name="uniE034" unicode="pause" 
d="M299 405h85v-298h-85v298zM128 107v298h85v-298h-85z" />
    <glyph glyph-name="uniE035" unicode="pause_circle_filled" 
d="M320 171v170h-43v-170h43zM235 171v170h-43v-170h43zM256 469q88 0 150.5 -62.5t62.5 -150.5t-62.5 -150.5t-150.5 -62.5t-150.5 62.5t-62.5 150.5t62.5 150.5t150.5 62.5z" />
    <glyph glyph-name="uniE036" unicode="pause_circle_outline" 
d="M277 171v170h43v-170h-43zM256 85q70 0 120.5 50.5t50.5 120.5t-50.5 120.5t-120.5 50.5t-120.5 -50.5t-50.5 -120.5t50.5 -120.5t120.5 -50.5zM256 469q88 0 150.5 -62.5t62.5 -150.5t-62.5 -150.5t-150.5 -62.5t-150.5 62.5t-62.5 150.5t62.5 150.5t150.5 62.5z
M192 171v170h43v-170h-43z" />
    <glyph glyph-name="uniE037" unicode="play_arrow" 
d="M171 405l234 -149l-234 -149v298z" />
    <glyph glyph-name="uniE038" unicode="play_circle_filled" 
d="M213 160l128 96l-128 96v-192zM256 469q88 0 150.5 -62.5t62.5 -150.5t-62.5 -150.5t-150.5 -62.5t-150.5 62.5t-62.5 150.5t62.5 150.5t150.5 62.5z" />
    <glyph glyph-name="uniE039" unicode="play_circle_outline" 
d="M256 85q70 0 120.5 50.5t50.5 120.5t-50.5 120.5t-120.5 50.5t-120.5 -50.5t-50.5 -120.5t50.5 -120.5t120.5 -50.5zM256 469q88 0 150.5 -62.5t62.5 -150.5t-62.5 -150.5t-150.5 -62.5t-150.5 62.5t-62.5 150.5t62.5 150.5t150.5 62.5zM213 160v192l128 -96z" />
    <glyph glyph-name="uniE03B" unicode="playlist_add" 
d="M43 171v42h170v-42h-170zM384 213h85v-42h-85v-86h-43v86h-85v42h85v86h43v-86zM299 384v-43h-256v43h256zM299 299v-43h-256v43h256z" />
    <glyph glyph-name="uniE03C" unicode="queue" 
d="M405 277v43h-85v85h-43v-85h-85v-43h85v-85h43v85h85zM427 469q17 0 29.5 -12.5t12.5 -29.5v-256q0 -17 -12.5 -30t-29.5 -13h-256q-17 0 -30 13t-13 30v256q0 17 13 29.5t30 12.5h256zM85 384v-299h299v-42h-299q-17 0 -29.5 12.5t-12.5 29.5v299h42z" />
    <glyph glyph-name="uniE03D" unicode="queue_music" 
d="M363 384h106v-43h-64v-192q0 -26 -19 -45t-45 -19t-45 19t-19 45t19 45t45 19q8 0 22 -4v175zM64 171v42h171v-42h-171zM320 299v-43h-256v43h256zM320 384v-43h-256v43h256z" />
    <glyph glyph-name="uniE03E" unicode="radio" 
d="M427 256v85h-342v-85h256v43h43v-43h43zM149 85q26 0 45 19t19 45t-19 45t-45 19t-45 -19t-19 -45t19 -45t45 -19zM69 381l270 110l14 -36l-176 -71h250q18 0 30 -12.5t12 -30.5v-256q0 -17 -12 -29.5t-30 -12.5h-342q-18 0 -30 12.5t-12 29.5v256q0 30 26 40z" />
    <glyph glyph-name="uniE03F" unicode="recent_actors" 
d="M267 149v16q0 22 -33 35t-63 13t-63 -13t-33 -35v-16h192zM171 347q-19 0 -33.5 -14.5t-14.5 -33.5t14.5 -33.5t33.5 -14.5t33.5 14.5t14.5 33.5t-14.5 33.5t-33.5 14.5zM299 405q9 0 15 -6t6 -15v-256q0 -9 -6 -15t-15 -6h-256q-9 0 -15.5 6t-6.5 15v256q0 9 6.5 15
t15.5 6h256zM363 107v298h42v-298h-42zM448 405h43v-298h-43v298z" />
    <glyph glyph-name="uniE040" unicode="repeat" 
d="M363 149v86h42v-128h-256v-64l-85 85l85 85v-64h214zM149 363v-86h-42v128h256v64l85 -85l-85 -85v64h-214z" />
    <glyph glyph-name="uniE041" unicode="repeat_one" 
d="M277 192h-32v85h-32v22l43 21h21v-128zM363 149v86h42v-128h-256v-64l-85 85l85 85v-64h214zM149 363v-86h-42v128h256v64l85 -85l-85 -85v64h-214z" />
    <glyph glyph-name="uniE042" unicode="replay" 
d="M256 405q71 0 121 -50t50 -120q0 -71 -50.5 -121t-120.5 -50t-120.5 50t-50.5 121h43q0 -53 37.5 -90.5t90.5 -37.5t90.5 37.5t37.5 90.5t-37.5 90.5t-90.5 37.5v-86l-107 107l107 107v-86z" />
    <glyph glyph-name="uniE043" unicode="shuffle" 
d="M316 226l67 -67l44 44v-118h-118l44 44l-67 67zM309 427h118v-118l-44 44l-268 -268l-30 30l268 268zM226 316l-30 -30l-111 111l30 30z" />
    <glyph glyph-name="uniE044" unicode="skip_next" 
d="M341 384h43v-256h-43v256zM128 128v256l181 -128z" />
    <glyph glyph-name="uniE045" unicode="skip_previous" 
d="M203 256l181 128v-256zM128 384h43v-256h-43v256z" />
    <glyph glyph-name="uniE046" unicode="snooze" 
d="M192 277v43h128v-38l-77 -90h77v-43h-128v39l77 89h-77zM256 85q62 0 105.5 44t43.5 106t-43.5 105.5t-105.5 43.5t-105.5 -43.5t-43.5 -105.5t43.5 -106t105.5 -44zM256 427q80 0 136 -56.5t56 -135.5t-56 -135.5t-136 -56.5t-136 56.5t-56 135.5t56 135.5t136 56.5z
M469 390l-27 -33l-98 83l27 32zM168 440l-98 -82l-27 32l98 82z" />
    <glyph glyph-name="uniE047" unicode="stop" 
d="M128 384h256v-256h-256v256z" />
    <glyph glyph-name="uniE048" unicode="subtitles" 
d="M427 213v43h-214v-43h214zM427 128v43h-86v-43h86zM299 128v43h-214v-43h214zM85 256v-43h86v43h-86zM427 427q17 0 29.5 -13t12.5 -30v-256q0 -17 -12.5 -30t-29.5 -13h-342q-17 0 -29.5 13t-12.5 30v256q0 17 12.5 30t29.5 13h342z" />
    <glyph glyph-name="uniE049" unicode="surround_sound" 
d="M256 299q17 0 30 -13t13 -30t-13 -30t-30 -13t-30 13t-13 30t13 30t30 13zM377 135q50 50 50 121t-50 121l-31 -31q38 -38 38 -90q0 -54 -37 -91zM256 171q35 0 60 25t25 60t-25 60t-60 25t-60 -25t-25 -60t25 -60t60 -25zM166 166q-38 38 -38 90q0 54 37 91l-30 30
q-50 -50 -50 -121t50 -121zM427 427q17 0 29.5 -13t12.5 -30v-256q0 -17 -12.5 -30t-29.5 -13h-342q-17 0 -29.5 13t-12.5 30v256q0 17 12.5 30t29.5 13h342z" />
    <glyph glyph-name="uniE04A" unicode="video_collection" 
d="M256 203l128 96l-128 96v-192zM427 469q17 0 29.5 -12.5t12.5 -29.5v-256q0 -17 -12.5 -30t-29.5 -13h-256q-17 0 -30 13t-13 30v256q0 17 13 29.5t30 12.5h256zM85 384v-299h299v-42h-299q-17 0 -29.5 12.5t-12.5 29.5v299h42z" />
    <glyph glyph-name="uniE04B" unicode="videocam" 
d="M363 288l85 85v-234l-85 85v-75q0 -9 -6.5 -15t-15.5 -6h-256q-9 0 -15 6t-6 15v214q0 9 6 15t15 6h256q9 0 15.5 -6t6.5 -15v-75z" />
    <glyph glyph-name="uniE04C" unicode="videocam_off" 
d="M70 469l378 -378l-27 -27l-68 68q-6 -4 -12 -4h-256q-9 0 -15 6t-6 15v214q0 9 6 15t15 6h16l-58 58zM448 373v-228l-239 239h132q9 0 15.5 -6t6.5 -15v-75z" />
    <glyph glyph-name="uniE04D" unicode="volume_down" 
d="M107 320h85l107 107v-342l-107 107h-85v128zM395 256q0 -59 -54 -86v172q54 -27 54 -86z" />
    <glyph glyph-name="uniE04E" unicode="volume_mute" 
d="M149 320h86l106 107v-342l-106 107h-86v128z" />
    <glyph glyph-name="uniE04F" unicode="volume_off" 
d="M256 427v-90l-45 45zM91 448l357 -357l-27 -27l-44 44q-37 -29 -78 -39v44q25 7 48 25l-91 91v-144l-107 107h-85v128h101l-101 101zM405 256q0 51 -29.5 90t-76.5 53v44q65 -14 107 -66.5t42 -120.5q0 -48 -22 -89l-32 33q11 27 11 56zM352 256q0 -9 -1 -13l-52 52v47
q53 -26 53 -86z" />
    <glyph glyph-name="uniE050" unicode="volume_up" 
d="M299 443q65 -14 107 -66.5t42 -120.5t-42 -120.5t-107 -66.5v44q47 14 76.5 53t29.5 90t-29.5 90t-76.5 53v44zM352 256q0 -60 -53 -86v172q53 -26 53 -86zM64 320h85l107 107v-342l-107 107h-85v128z" />
    <glyph glyph-name="uniE051" unicode="web" 
d="M427 128v192h-86v-192h86zM320 235v85h-235v-85h235zM320 128v85h-235v-85h235zM427 427q17 0 29.5 -13t12.5 -30v-256q0 -17 -12.5 -30t-29.5 -13h-342q-17 0 -29.5 13t-12.5 30v256q0 17 12.5 30t29.5 13h342z" />
    <glyph glyph-name="uniE052" unicode="hd" 
d="M309 224v64h43v-64h-43zM277 320v-128h86q9 0 15 6t6 15v86q0 9 -6 15t-15 6h-86zM235 192v128h-32v-53h-43v53h-32v-128h32v43h43v-43h32zM405 448q17 0 30 -13t13 -30v-298q0 -17 -13 -30t-30 -13h-298q-18 0 -30.5 13t-12.5 30v298q0 17 12.5 30t30.5 13h298z" />
    <glyph glyph-name="uniE053" unicode="sort_by_alpha" 
d="M336 168h130v-34h-182v27l126 183h-125v34h177v-27zM106 221h83l-42 111zM130 378h35l96 -244h-39l-20 52h-109l-20 -52h-39zM219 99h99l-50 -50zM319 413h-101l50 50z" />
    <glyph glyph-name="uniE055" unicode="airplay" 
d="M448 448q17 0 30 -13t13 -30v-256q0 -17 -13 -29.5t-30 -12.5h-85v42h85v256h-384v-256h85v-42h-85q-17 0 -30 12.5t-13 29.5v256q0 17 13 30t30 13h384zM128 43l128 128l128 -128h-256z" />
    <glyph glyph-name="uniE056" unicode="forward_&#x31;&#x30;" 
d="M282 188q0 -7 10 -7q5 0 7 2l4 5q2 4 2 6v43q-2 4 -2 6t-4.5 4.5t-6.5 2.5q-3 0 -6 -3l-4 -4q-3 -4 -3 -6v-43q3 -4 3 -6zM322 209q0 -13 -2 -17l-6 -13q-7 -6 -11 -6q-2 0 -6.5 -1t-6.5 -1q-9 0 -13 2q-2 1 -5 3t-5 3q-9 5 -9 30v15q0 13 2 17l7 13q6 6 10 6q2 0 6.5 1
t6.5 1q9 0 13 -2q2 -1 5.5 -3t5.5 -3t6 -13q2 -6 2 -17v-15zM233 171h-20v70l-21 -6v15l38 12h3v-91zM85 235q0 70 50 120t121 50v86l107 -107l-107 -107v86q-52 0 -90 -37.5t-38 -90.5t38 -90.5t90 -37.5t90 37.5t38 90.5h43q0 -71 -50.5 -121t-120.5 -50t-120.5 50
t-50.5 121z" />
    <glyph glyph-name="uniE057" unicode="forward_&#x33;&#x30;" 
d="M85 235q0 70 50 120t121 50v86l107 -107l-107 -107v86q-52 0 -90 -37.5t-38 -90.5t38 -90.5t90 -37.5t90 37.5t38 90.5h43q0 -71 -50.5 -121t-120.5 -50t-120.5 50t-50.5 121zM284 188q0 -7 10 -7q5 0 7 2l4 5q2 4 2 6v43q-2 4 -2 6t-4.5 4.5t-6.5 2.5q-3 0 -6 -3l-4 -4
q-2 -4 -2 -6v-43q2 -4 2 -6zM326 209q0 -13 -2 -17l-6 -13q-7 -6 -11 -6q-2 0 -6.5 -1t-6.5 -1q-7 0 -23 8q-2 1 -6 13q-3 9 -3 17v15q0 11 3 17l6 13q7 6 11 6q2 0 6 1t6 1q9 0 13 -2q2 -1 5.5 -3t5.5 -3t6 -13q2 -6 2 -17v-15zM213 224q15 0 15 13v4q-2 2 -2 4t-4 2h-11
q-2 -2 -4 -2t-2 -4v-4h-22q0 8 5.5 15.5t12.5 7.5q1 0 5 1t5 1q12 0 24 -6q8 -4 8 -19v-7q-2 -4 -2 -6q0 -4 -4 -4q-2 0 -7 -5q9 -5 11 -8q4 -8 4 -13q0 -9 -2 -11q-1 -1 -3 -4t-3 -4q-4 -4 -11 -4q-2 0 -6.5 -1t-6.5 -1q-8 0 -10 2q-1 1 -5 2t-6 2q-9 5 -9 21h18v-4
q2 -2 2 -4t4 -2h11q2 2 4 2t2 4v11q-2 2 -2 4t-4 2h-13v15h8z" />
    <glyph glyph-name="uniE058" unicode="forward_&#x35;" 
d="M250 222q-7 -3 -7 -4l-2 -3h-13l5 47h51v-15h-37l-2 -19q2 0 2 2q0 1 1.5 1.5t1.5 1.5h4h4q8 0 11 -3q1 -1 4 -3t4 -3q9 -9 9 -23q0 -9 -2 -11q-1 -1 -3 -5t-4 -6q-8 -8 -23 -8q-9 0 -11 2q-1 1 -4.5 2t-5.5 2q-9 5 -9 19h17q0 -10 13 -10q4 0 6 2l5 4q2 4 2 6v13l-2 4
l-5 5q-4 2 -6 2h-4zM85 235q0 70 50 120t121 50v86l107 -107l-107 -107v86q-52 0 -90 -37.5t-38 -90.5t38 -90.5t90 -37.5t90 37.5t38 90.5h43q0 -71 -50.5 -121t-120.5 -50t-120.5 50t-50.5 121z" />
    <glyph glyph-name="uniE059" unicode="replay_&#x31;&#x30;" 
d="M282 188q0 -7 10 -7q5 0 7 2l4 5q2 4 2 6v43q-2 4 -2 6t-4.5 4.5t-6.5 2.5q-3 0 -6 -3l-4 -4q-3 -4 -3 -6v-43q3 -4 3 -6zM324 209q0 -13 -2 -17l-6 -13q-7 -6 -11 -6q-2 0 -6.5 -1t-6.5 -1q-9 0 -13 2q-2 1 -5 3t-5 3q-9 5 -9 30v15q0 13 2 17l7 13q6 6 10 6q2 0 6.5 1
t6.5 1q9 0 13 -2q2 -1 5.5 -3t5.5 -3t6 -13q2 -6 2 -17v-15zM233 171h-20v70l-21 -6v15l38 12h3v-91zM256 405q71 0 121 -50t50 -120q0 -71 -50.5 -121t-120.5 -50t-120.5 50t-50.5 121h43q0 -53 38 -90.5t90 -37.5t90 37.5t38 90.5t-38 90.5t-90 37.5v-86l-107 107l107 107
v-86z" />
    <glyph glyph-name="uniE05A" unicode="replay_&#x33;&#x30;" 
d="M286 188q0 -7 11 -7q4 0 6 2l4 5q2 4 2 6v43q0 1 -1 3t-1 3q0 2 -4 4.5t-6 2.5q-4 0 -7 -3l-4 -4q-2 -4 -2 -6v-43q2 -4 2 -6zM326 209q0 -13 -2 -17l-6 -13q-7 -6 -11 -6q-2 0 -6.5 -1t-6.5 -1q-7 0 -23 8q-2 1 -6 13q-3 9 -3 17v15q0 11 3 17l6 13q7 6 11 6q2 0 6 1
t6 1q9 0 13 -2q2 -1 5.5 -3t5.5 -3t6 -13q2 -6 2 -17v-15zM213 224q15 0 15 13v4q-2 2 -2 4t-4 2h-11q-2 -2 -4 -2t-2 -4v-4h-22q0 8 5.5 15.5t12.5 7.5q1 0 5 1t5 1q12 0 24 -6q8 -4 8 -19v-7q-2 -4 -2 -6q0 -4 -4 -4q-2 0 -7 -5q9 -5 11 -8q4 -8 4 -13q0 -9 -2 -11
q-1 -1 -3 -4t-3 -4q-4 -4 -11 -4q-2 0 -6.5 -1t-6.5 -1q-8 0 -10 2q-1 1 -5 2t-6 2q-9 5 -9 21h18v-4q2 -2 2 -4t4 -2h11q2 2 4 2t2 4v11q-2 2 -2 4t-4 2h-13v15h8zM256 405q71 0 121 -50t50 -120q0 -71 -50.5 -121t-120.5 -50t-120.5 50t-50.5 121h43q0 -53 38 -90.5
t90 -37.5t90 37.5t38 90.5t-38 90.5t-90 37.5v-86l-107 107l107 107v-86z" />
    <glyph glyph-name="uniE05B" unicode="replay_&#x35;" 
d="M252 222q-7 -3 -7 -4l-2 -3h-15l5 47h51v-15h-37l-2 -19q2 0 2 2q0 1 1.5 1.5t1.5 1.5h4h4q8 0 11 -3q1 -1 4 -3t4 -3q9 -9 9 -23q0 -9 -2 -11q-1 -1 -3 -5t-4 -6t-4.5 -3.5t-3.5 -2.5q-2 -2 -13 -2q-9 0 -11 2q-1 1 -4.5 2t-5.5 2q-9 5 -9 19h17q0 -10 13 -10q4 0 6 2
l5 4q2 4 2 6v13l-2 4l-5 5q-4 2 -6 2h-4zM256 405q71 0 121 -50t50 -120q0 -71 -50.5 -121t-120.5 -50t-120.5 50t-50.5 121h43q0 -53 38 -90.5t90 -37.5t90 37.5t38 90.5t-38 90.5t-90 37.5v-86l-107 107l107 107v-86z" />
    <glyph glyph-name="uniE05C" unicode="add_to_queue" 
d="M341 299v-43h-64v-64h-42v64h-64v43h64v64h42v-64h64zM448 149v256h-384v-256h384zM448 448q17 0 30 -12.5t13 -30.5l-1 -256q0 -17 -12.5 -29.5t-29.5 -12.5h-107v-43h-170v43h-107q-18 0 -30.5 12.5t-12.5 29.5v256q0 18 12.5 30.5t30.5 12.5h384z" />
    <glyph glyph-name="uniE05D" unicode="fiber_dvr" 
d="M448 267v21q0 14 -9 23t-23 9h-75v-128h32v43h25l18 -43h32l-19 45q19 9 19 30zM269 192l38 128h-32l-22 -73l-21 73h-32l37 -128h32zM171 224v64q0 14 -9.5 23t-22.5 9h-75v-128h75q13 0 22.5 9t9.5 23zM448 448q18 0 30.5 -12.5t12.5 -30.5v-298q0 -17 -12.5 -30
t-30.5 -13h-384q-18 0 -30.5 13t-12.5 30v298q0 18 12.5 30.5t30.5 12.5h384zM96 288h43v-64h-43v64zM373 288h43v-21h-43v21z" />
    <glyph glyph-name="uniE05E" unicode="fiber_new" 
d="M437 213v107h-26v-96h-24v75h-27v-75h-24v96h-27v-107q0 -9 6.5 -15t15.5 -6h85q9 0 15 6t6 15zM288 293v27h-85v-128h85v27h-53v23h53v27h-53v24h53zM181 192v128h-26v-75l-54 75h-26v-128h26v75l55 -75h25zM427 427q18 0 30 -12.5t12 -30.5v-256q0 -18 -12 -30.5
t-30 -12.5h-342q-18 0 -30 12.5t-12 30.5v256q0 18 12 30.5t30 12.5h342z" />
    <glyph glyph-name="uniE05F" unicode="playlist_play" 
d="M299 213l106 -64l-106 -64v128zM85 213h171v-42h-171v42zM85 384h256v-43h-256v43zM85 299h256v-43h-256v43z" />
    <glyph glyph-name="uniE060" unicode="art_track" 
d="M224 192l-48 64l-37 -48l-27 32l-37 -48h149zM256 320v-128q0 -17 -13 -30t-30 -13h-128q-17 0 -29.5 13t-12.5 30v128q0 17 12.5 30t29.5 13h128q17 0 30 -13t13 -30zM299 149v43h170v-43h-170zM469 363v-43h-170v43h170zM469 235h-170v42h170v-42z" />
    <glyph glyph-name="uniE061" unicode="fiber_manual_record" 
d="M85 256q0 70 50.5 120.5t120.5 50.5t120.5 -50.5t50.5 -120.5t-50.5 -120.5t-120.5 -50.5t-120.5 50.5t-50.5 120.5z" />
    <glyph glyph-name="uniE062" unicode="fiber_smart_record" 
d="M363 421q56 -14 92 -60t36 -105t-36 -105t-92 -60v44q38 13 61.5 46t23.5 75t-23.5 75t-61.5 46v44zM21 256q0 70 50.5 120.5t120.5 50.5t120.5 -50.5t50.5 -120.5t-50.5 -120.5t-120.5 -50.5t-120.5 50.5t-50.5 120.5z" />
    <glyph glyph-name="uniE063" unicode="music_video" 
d="M171 192q0 26 19 45t45 19q7 0 21 -4v132h107v-43h-64v-150q0 -26 -19 -44.5t-45 -18.5t-45 19t-19 45zM448 107v298h-384v-298h384zM448 448q17 0 30 -13t13 -30v-298q0 -17 -13 -30t-30 -13h-384q-17 0 -30 13t-13 30v298q0 17 13 30t30 13h384z" />
    <glyph glyph-name="uniE064" unicode="subscriptions" 
d="M341 171l-128 69v-139zM469 256v-171q0 -17 -12.5 -29.5t-29.5 -12.5h-342q-17 0 -29.5 12.5t-12.5 29.5v171q0 17 12.5 30t29.5 13h342q17 0 29.5 -13t12.5 -30zM384 469v-42h-256v42h256zM427 341h-342v43h342v-43z" />
    <glyph glyph-name="uniE065" unicode="playlist_add_check" 
d="M459 267l32 -32l-149 -150l-97 96l32 32l65 -64zM43 171v42h170v-42h-170zM299 384v-43h-256v43h256zM299 299v-43h-256v43h256z" />
    <glyph glyph-name="uniE066" unicode="queue_play_next" 
d="M512 128l-96 -96l-32 32l64 64l-64 64l32 32zM277 299h64v-43h-64v-64h-42v64h-64v43h64v64h42v-64zM448 448q17 0 30 -12.5t13 -30.5v-170h-43v170h-384v-256h320v-42h-43v-43h-170v43h-107q-18 0 -30.5 12.5t-12.5 29.5v256q0 18 12.5 30.5t30.5 12.5h384z" />
    <glyph glyph-name="uniE067" unicode="remove_from_queue" 
d="M341 299v-43h-170v43h170zM448 149v256h-384v-256h384zM448 448q17 0 30 -12.5t13 -30.5l-1 -256q0 -17 -12.5 -29.5t-29.5 -12.5h-107v-43h-170v43h-107q-18 0 -30.5 12.5t-12.5 29.5v256q0 18 12.5 30.5t30.5 12.5h384z" />
    <glyph glyph-name="uniE068" unicode="slow_motion_video" 
d="M469 256q0 -82 -55 -143t-136 -69v43q63 8 106 56.5t43 112.5t-43 112.5t-106 56.5v43q81 -8 136 -69t55 -143zM121 91l30 30q37 -28 84 -34v-43q-63 6 -114 47zM87 235q6 -47 34 -83l-30 -31q-41 51 -47 114h43zM121 361q-28 -37 -34 -84h-43q6 63 47 114zM235 425
q-47 -6 -84 -34l-30 30q51 41 114 47v-43zM278 303l63 -47q-63 -47 -128 -96z" />
    <glyph glyph-name="uniE069" unicode="web_asset" 
d="M405 128v213h-298v-213h298zM405 427q18 0 30.5 -13t12.5 -30v-256q0 -17 -13 -30t-30 -13h-298q-18 0 -30.5 13t-12.5 30v256q0 17 12.5 30t30.5 13h298z" />
    <glyph glyph-name="uniE06A" unicode="fiber_pin" 
d="M427 192v128h-27v-75l-53 75h-27v-128h27v75l54 -75h26zM267 192v128h-32v-128h32zM192 267v21q0 14 -9 23t-23 9h-75v-128h32v43h43q14 0 23 9.5t9 22.5zM427 427q18 0 30 -12.5t12 -30.5v-256q0 -18 -12 -30.5t-30 -12.5h-342q-18 0 -30 12.5t-12 30.5v256
q0 18 12 30.5t30 12.5h342zM117 288h43v-21h-43v21z" />
    <glyph glyph-name="uniE06B" unicode="branding_watermark" 
d="M448 107v128h-192v-128h192zM448 448q17 0 30 -13t13 -30v-298q0 -17 -13 -30t-30 -13h-384q-17 0 -30 13t-13 30v298q0 17 13 30t30 13h384z" />
    <glyph glyph-name="uniE06C" unicode="call_to_action" 
d="M448 107v64h-384v-64h384zM448 448q17 0 30 -13t13 -30v-298q0 -17 -13 -30t-30 -13h-384q-17 0 -30 13t-13 30v298q0 17 13 30t30 13h384z" />
    <glyph glyph-name="uniE06D" unicode="featured_play_list" 
d="M256 363v42h-192v-42h192zM256 277v43h-192v-43h192zM448 448q17 0 30 -13t13 -30v-298q0 -17 -13 -30t-30 -13h-384q-17 0 -30 13t-13 30v298q0 17 13 30t30 13h384z" />
    <glyph glyph-name="uniE06E" unicode="featured_video" 
d="M256 256v149h-192v-149h192zM448 448q17 0 30 -13t13 -30v-298q0 -17 -13 -30t-30 -13h-384q-17 0 -30 13t-13 30v298q0 17 13 30t30 13h384z" />
    <glyph glyph-name="uniE06F" unicode="note" 
d="M320 395v-118h117zM469 299v-171q0 -17 -12.5 -29.5t-29.5 -12.5l-342 -1q-17 0 -29.5 13t-12.5 30v256q0 17 12.5 30t29.5 13h256z" />
    <glyph glyph-name="uniE070" unicode="video_call" 
d="M299 235v42h-64v64h-43v-64h-64v-42h64v-64h43v64h64zM363 288l85 85v-234l-85 85v-75q0 -9 -6.5 -15t-15.5 -6h-256q-9 0 -15 6t-6 15v214q0 9 6 15t15 6h256q9 0 15.5 -6t6.5 -15v-75z" />
    <glyph glyph-name="uniE071" unicode="video_label" 
d="M448 171v234h-384v-234h384zM448 448q17 0 30 -13t13 -30v-298q0 -17 -13 -30t-30 -13h-384q-17 0 -30 13t-13 30v298q0 17 13 30t30 13h384z" />
    <glyph glyph-name="uniE072" unicode="&#x34;k" 
d="M386 192l-43 64l43 64h-37l-42 -64v64h-32v-128h32v64l42 -64h37zM253 224v32h-21v64h-32v-64h-32v64h-32v-96h64v-32h32v32h21zM405 448q18 0 30.5 -13t12.5 -30v-298q0 -17 -13 -30t-30 -13h-298q-18 0 -30.5 13t-12.5 30v298q0 17 13 30t30 13h298z" />
    <glyph glyph-name="uniE073" unicode="missed_video_call" 
d="M213 192l107 107l-17 17l-90 -91l-66 67h54v23h-94v-94h23v54zM363 288l85 85v-234l-85 85v-75q0 -9 -6.5 -15t-15.5 -6h-256q-9 0 -15 6t-6 15v214q0 9 6 15t15 6h256q9 0 15.5 -6t6.5 -15v-75z" />
    <glyph glyph-name="uniE074" unicode="control_camera" 
d="M192 256q0 26 19 45t45 19t45 -19t19 -45t-19 -45t-45 -19t-45 19t-19 45zM118 332l38 -38l-38 -38l38 -38l-38 -38l-75 76zM180 118l38 38l38 -38l38 38l38 -38l-76 -75zM394 180l-38 38l38 38l-38 38l38 38l75 -76zM332 394l-38 -38l-38 38l-38 -38l-38 38l76 75z" />
    <glyph glyph-name="uniE0AF" unicode="business" 
d="M384 192v-43h-43v43h43zM384 277v-42h-43v42h43zM427 107v213h-171v-43h43v-42h-43v-43h43v-43h-43v-42h171zM213 363v42h-42v-42h42zM213 277v43h-42v-43h42zM213 192v43h-42v-43h42zM213 107v42h-42v-42h42zM128 363v42h-43v-42h43zM128 277v43h-43v-43h43zM128 192v43
h-43v-43h43zM128 107v42h-43v-42h43zM256 363h213v-299h-426v384h213v-85z" />
    <glyph glyph-name="uniE0B0" unicode="call" 
d="M427 184q9 0 15 -6t6 -15v-74q0 -25 -21 -25q-149 0 -256 107t-107 256q0 21 25 21h74q9 0 15 -6t6 -15q0 -39 12 -75q4 -13 -5 -22l-41 -36q46 -96 147 -145l33 42q10 10 22 5q36 -12 75 -12z" />
    <glyph glyph-name="uniE0B1" unicode="call_end" 
d="M256 320q-52 0 -98 -15v-66q0 -15 -12 -20q-32 -15 -57 -39q-6 -6 -15 -6t-15 6l-53 53q-6 6 -6 15t6 15q105 100 250 100t250 -100q6 -6 6 -15t-6 -15l-53 -53q-6 -6 -15 -6t-15 6q-25 24 -57 39q-12 5 -12 19v66q-50 16 -98 16z" />
    <glyph glyph-name="uniE0B2" unicode="call_made" 
d="M192 405h213v-213h-42v141l-248 -248l-30 30l248 248h-141v42z" />
    <glyph glyph-name="uniE0B3" unicode="call_merge" 
d="M160 341l96 96l96 -96h-75v-136l-128 -128l-30 30l116 115v119h-75zM363 77l-73 72l30 30l73 -72z" />
    <glyph glyph-name="uniE0B4" unicode="call_missed" 
d="M418 363l30 -30l-192 -192l-149 149v-98h-43v171h171v-43h-98l119 -119z" />
    <glyph glyph-name="uniE0B5" unicode="call_received" 
d="M427 397l-248 -248h141v-42h-213v213h42v-141l248 248z" />
    <glyph glyph-name="uniE0B6" unicode="call_split" 
d="M213 427l-49 -49l113 -113v-180h-42v162l-101 101l-49 -49v128h128zM299 427h128v-128l-49 49l-62 -62l-30 30l62 62z" />
    <glyph glyph-name="uniE0B7" unicode="chat" 
d="M384 341v43h-256v-43h256zM299 213v43h-171v-43h171zM128 320v-43h256v43h-256zM427 469q17 0 29.5 -12.5t12.5 -29.5v-256q0 -17 -12.5 -30t-29.5 -13h-299l-85 -85v384q0 17 12.5 29.5t29.5 12.5h342z" />
    <glyph glyph-name="uniE0B8" unicode="clear_all" 
d="M149 363h299v-43h-299v43zM64 149v43h299v-43h-299zM107 235v42h298v-42h-298z" />
    <glyph glyph-name="uniE0B9" unicode="comment" 
d="M384 341v43h-256v-43h256zM384 277v43h-256v-43h256zM384 213v43h-256v-43h256zM469 427v-384l-85 85h-299q-17 0 -29.5 13t-12.5 30v256q0 17 12.5 29.5t29.5 12.5h342q17 0 29.5 -12.5t12.5 -29.5z" />
    <glyph glyph-name="uniE0BA" unicode="contacts" 
d="M363 149v32q0 24 -36.5 39t-70.5 15t-70.5 -15t-36.5 -39v-32h214zM256 368q-20 0 -34 -14t-14 -34t14 -34t34 -14t34 14t14 34t-14 34t-34 14zM427 427q17 0 29.5 -13t12.5 -30v-256q0 -17 -12.5 -30t-29.5 -13h-342q-17 0 -29.5 13t-12.5 30v256q0 17 12.5 30t29.5 13
h342zM85 0v43h342v-43h-342zM427 512v-43h-342v43h342z" />
    <glyph glyph-name="uniE0BB" unicode="dialer_sip" 
d="M427 181q9 0 15 -6t6 -15v-75q0 -9 -6 -15t-15 -6q-150 0 -256.5 106.5t-106.5 256.5q0 9 6 15t15 6h75q9 0 15 -6t6 -15q0 -40 12 -76q4 -13 -5 -22l-47 -47q47 -92 141 -141l47 47q9 9 22 5q36 -12 76 -12zM427 405v22h-22v-22h22zM384 448h64v-64h-43v-43h-21v107z
M320 405v-64h-64v22h43v21h-43v64h64v-21h-43v-22h43zM363 448v-107h-22v107h22z" />
    <glyph glyph-name="uniE0BC" unicode="dialpad" 
d="M256 491q17 0 30 -13t13 -30t-13 -30t-30 -13t-30 13t-13 30t13 30t30 13zM256 363q17 0 30 -13t13 -30t-13 -30t-30 -13t-30 13t-13 30t13 30t30 13zM384 363q17 0 30 -13t13 -30t-13 -30t-30 -13t-30 13t-13 30t13 30t30 13zM384 235q17 0 30 -13t13 -30t-13 -30
t-30 -13t-30 13t-13 30t13 30t30 13zM256 235q17 0 30 -13t13 -30t-13 -30t-30 -13t-30 13t-13 30t13 30t30 13zM384 405q-17 0 -30 13t-13 30t13 30t30 13t30 -13t13 -30t-13 -30t-30 -13zM128 235q17 0 30 -13t13 -30t-13 -30t-30 -13t-30 13t-13 30t13 30t30 13zM128 363
q17 0 30 -13t13 -30t-13 -30t-30 -13t-30 13t-13 30t13 30t30 13zM128 491q17 0 30 -13t13 -30t-13 -30t-30 -13t-30 13t-13 30t13 30t30 13zM256 107q17 0 30 -13t13 -30t-13 -30t-30 -13t-30 13t-13 30t13 30t30 13z" />
    <glyph glyph-name="uniE0BE" unicode="email" 
d="M427 341v43l-171 -107l-171 107v-43l171 -106zM427 427q17 0 29.5 -13t12.5 -30v-256q0 -17 -12.5 -30t-29.5 -13h-342q-17 0 -29.5 13t-12.5 30v256q0 17 12.5 30t29.5 13h342z" />
    <glyph glyph-name="uniE0BF" unicode="forum" 
d="M363 256q0 -9 -6.5 -15t-15.5 -6h-213l-85 -86v299q0 9 6 15t15 6h277q9 0 15.5 -6t6.5 -15v-192zM448 384q9 0 15 -6t6 -15v-320l-85 85h-235q-9 0 -15 6t-6 15v43h277v192h43z" />
    <glyph glyph-name="uniE0C3" unicode="import_export" 
d="M341 149h64l-85 -85l-85 85h64v150h42v-150zM192 448l85 -85h-64v-150h-42v150h-64z" />
    <glyph glyph-name="uniE0C4" unicode="invert_colors_off" 
d="M256 403l-49 -48l-30 30l79 79l121 -121q38 -38 47 -91.5t-13 -100.5l-155 154v98zM256 94v103l-102 102q-26 -34 -26 -77q0 -52 38 -90t90 -38zM441 67l7 -8l-27 -27l-58 58q-47 -38 -107 -38q-71 0 -121 50q-46 47 -49.5 112.5t37.5 115.5l-59 59l27 27
q299 -299 350 -349z" />
    <glyph glyph-name="uniE0C6" unicode="live_help" 
d="M321 293q20 20 20 48q0 35 -25 60.5t-60 25.5t-60 -25.5t-25 -60.5h42q0 17 13 30t30 13t30 -13t13 -30t-13 -30l-26 -27q-25 -27 -25 -60v-11h42q0 34 25 61zM277 128v43h-42v-43h42zM405 469q17 0 30 -12.5t13 -29.5v-299q0 -17 -13 -30t-30 -13h-85l-64 -64l-64 64
h-85q-18 0 -30.5 13t-12.5 30v299q0 17 12.5 29.5t30.5 12.5h298z" />
    <glyph glyph-name="uniE0C7" unicode="location_off" 
d="M250 267q109 -108 177 -176l-27 -27l-72 71q-16 -24 -34 -47t-28 -34l-10 -11q-6 7 -16 18.5t-36 46t-45.5 67t-35.5 73.5t-16 72q0 11 4 33l-68 68l27 27l178 -178zM256 373q-23 0 -39 -18l-69 68q44 46 108 46q62 0 105.5 -43.5t43.5 -105.5q0 -48 -36 -117l-77 78
q17 15 17 39q0 22 -15.5 37.5t-37.5 15.5z" />
    <glyph glyph-name="uniE0C8" unicode="location_on" 
d="M256 267q22 0 37.5 15.5t15.5 37.5t-15.5 37.5t-37.5 15.5t-37.5 -15.5t-15.5 -37.5t15.5 -37.5t37.5 -15.5zM256 469q62 0 105.5 -43.5t43.5 -105.5q0 -31 -15.5 -71t-37.5 -75t-43.5 -65.5t-36.5 -48.5l-16 -17q-6 7 -16 18.5t-36 46t-45.5 67t-35.5 73.5t-16 72
q0 62 43.5 105.5t105.5 43.5z" />
    <glyph glyph-name="uniE0C9" unicode="message" 
d="M384 341v43h-256v-43h256zM384 277v43h-256v-43h256zM384 213v43h-256v-43h256zM427 469q17 0 29.5 -12.5t12.5 -29.5v-256q0 -17 -12.5 -30t-29.5 -13h-299l-85 -85v384q0 17 12.5 29.5t29.5 12.5h342z" />
    <glyph glyph-name="uniE0CA" unicode="chat_bubble" 
d="M427 469q17 0 29.5 -12.5t12.5 -29.5v-256q0 -17 -12.5 -30t-29.5 -13h-299l-85 -85v384q0 17 12.5 29.5t29.5 12.5h342z" />
    <glyph glyph-name="uniE0CB" unicode="chat_bubble_outline" 
d="M427 171v256h-342v-299l43 43h299zM427 469q17 0 29.5 -12.5t12.5 -29.5v-256q0 -17 -12.5 -30t-29.5 -13h-299l-85 -85v384q0 17 12.5 29.5t29.5 12.5h342z" />
    <glyph glyph-name="uniE0CC" unicode="no_sim" 
d="M78 429l373 -372l-28 -28l-40 41q-12 -6 -20 -6h-214q-17 0 -29.5 13t-12.5 30v239l-56 56zM405 405v-249l-242 242l50 50h150q17 0 29.5 -13t12.5 -30z" />
    <glyph glyph-name="uniE0CD" unicode="phone" 
d="M141 282q48 -93 141 -141l47 47q10 10 22 5q36 -12 76 -12q9 0 15 -6t6 -15v-75q0 -9 -6 -15t-15 -6q-150 0 -256.5 106.5t-106.5 256.5q0 9 6 15t15 6h75q9 0 15 -6t6 -15q0 -40 12 -76q4 -13 -5 -22z" />
    <glyph glyph-name="uniE0CE" unicode="portable_wifi_off" 
d="M70 459l21 -22l357 -357l-27 -27l-160 161h-1l-4 -1q-17 0 -30 13t-13 30l1 4l-34 34q-9 -18 -9 -38q0 -49 42 -74l-21 -37q-29 17 -46.5 46.5t-17.5 64.5q0 38 20 69l-30 31q-33 -46 -33 -100q0 -46 23 -85.5t62 -62.5l-21 -37q-49 28 -77.5 77.5t-28.5 107.5
q0 74 44 131l-44 45zM256 427q-43 0 -80 -20l-31 31q50 31 111 31q88 0 150.5 -62.5t62.5 -150.5q0 -61 -31 -111l-32 31q21 39 21 80q0 70 -50.5 120.5t-120.5 50.5zM375 208l-35 35q1 4 1 13q0 35 -25 60t-60 25q-9 0 -13 -1l-35 35q22 9 48 9q53 0 90.5 -37.5t37.5 -90.5
q0 -26 -9 -48z" />
    <glyph glyph-name="uniE0CF" unicode="contact_phone" 
d="M381 213q-8 21 -8 43t8 43h35l32 42l-42 43q-44 -33 -59 -85q-6 -21 -6 -43t6 -43q15 -52 59 -85l42 43l-32 42h-35zM299 128v21q0 29 -44 47.5t-84 18.5t-84 -18.5t-44 -47.5v-21h256zM171 384q-26 0 -45 -19t-19 -45t19 -45t45 -19t45 19t19 45t-19 45t-45 19zM469 448
q17 0 30 -13t13 -30v-298q0 -17 -13 -30t-30 -13h-426q-17 0 -30 13t-13 30v298q0 17 13 30t30 13h426z" />
    <glyph glyph-name="uniE0D0" unicode="contact_mail" 
d="M469 256v128h-170v-128h170zM299 128v21q0 29 -44 47.5t-84 18.5t-84 -18.5t-44 -47.5v-21h256zM171 384q-26 0 -45 -19t-19 -45t19 -45t45 -19t45 19t19 45t-19 45t-45 19zM469 448q17 0 30 -13t13 -30v-298q0 -17 -13 -30t-30 -13h-426q-17 0 -30 13t-13 30v298
q0 17 13 30t30 13h426zM448 341l-64 -42l-64 42v22l64 -43l64 43v-22z" />
    <glyph glyph-name="uniE0D1" unicode="ring_volume" 
d="M137 303q-74 74 -76 75l30 31l76 -76zM277 469v-106h-42v106h42zM451 378l-76 -75l-30 30l76 76zM506 156q6 -6 6 -15t-6 -15l-53 -53q-6 -6 -15 -6t-15 6q-28 26 -57 40q-12 5 -12 19v66q-46 15 -98 15t-98 -15v-66q0 -15 -12 -20q-32 -15 -57 -39q-6 -6 -15 -6t-15 6
l-53 53q-6 6 -6 15t6 15q105 100 250 100t250 -100z" />
    <glyph glyph-name="uniE0D2" unicode="speaker_phone" 
d="M320 85v171h-128v-171h128zM317 298q10 0 17 -7t7 -17v-207q0 -10 -7 -17t-17 -7h-122q-10 0 -17 7t-7 17v207q0 10 7 17.5t17 7.5zM256 491q96 0 165 -69l-30 -30q-56 56 -135 56t-135 -56l-30 30q69 69 165 69zM149 361q44 44 107 44t107 -44l-31 -30q-31 31 -76 31
t-76 -31z" />
    <glyph glyph-name="uniE0D3" unicode="stay_current_landscape" 
d="M405 363h-298v-214h298v214zM22 363q0 17 12.5 29.5t29.5 12.5h384q17 0 30 -12.5t13 -29.5v-214q0 -17 -13 -29.5t-30 -12.5h-384q-17 0 -30 12.5t-13 29.5z" />
    <glyph glyph-name="uniE0D4" unicode="stay_current_portrait" 
d="M363 107v298h-214v-298h214zM363 490q17 0 29.5 -12.5t12.5 -29.5v-384q0 -17 -12.5 -30t-29.5 -13h-214q-17 0 -29.5 13t-12.5 30v384q0 17 12.5 30t29.5 13z" />
    <glyph glyph-name="uniE0D5" unicode="stay_primary_landscape" 
d="M405 363h-298v-214h298v214zM22 363q0 17 12.5 29.5t29.5 12.5h384q17 0 30 -12.5t13 -29.5v-214q0 -17 -13 -29.5t-30 -12.5h-384q-17 0 -30 12.5t-13 29.5z" />
    <glyph glyph-name="uniE0D6" unicode="stay_primary_portrait" 
d="M363 107v298h-214v-298h214zM363 490q17 0 29.5 -12.5t12.5 -29.5v-384q0 -17 -12.5 -30t-29.5 -13h-214q-17 0 -29.5 13t-12.5 30v384q0 17 12.5 30t29.5 13z" />
    <glyph glyph-name="uniE0D7" unicode="swap_calls" 
d="M384 427l85 -86h-64v-149q0 -35 -25 -60t-60 -25t-60 25t-25 60v149q0 17 -13 30t-30 13t-30 -13t-13 -30v-149h64l-85 -85l-85 85h64v149q0 35 25 60.5t60 25.5t60 -25.5t25 -60.5v-149q0 -17 13 -30t30 -13t30 13t13 30v149h-64z" />
    <glyph glyph-name="uniE0D8" unicode="textsms" 
d="M363 277v43h-43v-43h43zM277 277v43h-42v-43h42zM192 277v43h-43v-43h43zM427 469q17 0 29.5 -12.5t12.5 -29.5v-256q0 -17 -12.5 -30t-29.5 -13h-299l-85 -85v384q0 17 12.5 29.5t29.5 12.5h342z" />
    <glyph glyph-name="uniE0D9" unicode="voicemail" 
d="M395 192q31 0 52.5 22t21.5 53t-21.5 52.5t-52.5 21.5t-53 -21.5t-22 -52.5t22 -53t53 -22zM117 192q31 0 53 22t22 53t-22 52.5t-53 21.5t-52.5 -21.5t-21.5 -52.5t21.5 -53t52.5 -22zM395 384q49 0 83 -34t34 -83t-34 -83.5t-83 -34.5h-278q-49 0 -83 34.5t-34 83.5
t34 83t83 34t83.5 -34t34.5 -83q0 -43 -27 -75h96q-27 32 -27 75q0 49 34.5 83t83.5 34z" />
    <glyph glyph-name="uniE0DA" unicode="vpn_key" 
d="M149 213q17 0 30 13t13 30t-13 30t-30 13t-29.5 -13t-12.5 -30t12.5 -30t29.5 -13zM270 299h221v-86h-43v-85h-85v85h-93q-13 -38 -46 -61.5t-75 -23.5q-53 0 -90.5 37.5t-37.5 90.5t37.5 90.5t90.5 37.5q42 0 75 -23.5t46 -61.5z" />
    <glyph glyph-name="uniE0DB" unicode="phonelink_erase" 
d="M405 491q17 0 30 -13t13 -30v-384q0 -17 -13 -30t-30 -13h-213q-17 0 -30 13t-13 30v64h43v-43h213v342h-213v-43h-43v64q0 17 13 30t30 13h213zM277 337l-85 -85l85 -86l-21 -21l-85 85l-86 -85l-21 21l85 86l-85 85l21 21l86 -85l85 85z" />
    <glyph glyph-name="uniE0DC" unicode="phonelink_lock" 
d="M203 277v32q0 12 -9.5 20t-22.5 8t-22.5 -8t-9.5 -20v-32h64zM230 277q10 0 18 -8t8 -19v-75q0 -10 -8.5 -18t-19.5 -8h-117q-10 0 -18 8.5t-8 19.5v75q0 10 8 17.5t18 7.5v32q0 22 18.5 38t41.5 16t41 -16t18 -38v-32zM405 491q17 0 30 -13t13 -30v-384q0 -17 -13 -30
t-30 -13h-213q-17 0 -30 13t-13 30v64h43v-43h213v342h-213v-43h-43v64q0 17 13 30t30 13h213z" />
    <glyph glyph-name="uniE0DD" unicode="phonelink_ring" 
d="M299 85v342h-214v-342h214zM299 491q17 0 29.5 -13t12.5 -30v-384q0 -17 -12.5 -30t-29.5 -13h-214q-17 0 -29.5 13t-12.5 30v384q0 17 12.5 30t29.5 13h214zM384 303q20 -21 20 -47t-20 -45l-21 22q18 25 0 49zM429 348q40 -38 40 -91.5t-40 -90.5l-22 22q29 31 29 70.5
t-29 67.5z" />
    <glyph glyph-name="uniE0DE" unicode="phonelink_setup" 
d="M384 490q17 0 30 -12.5t13 -29.5v-384q0 -17 -13 -30t-30 -13h-213q-17 0 -30 13t-13 30v64h43v-21h213v298h-213v-21h-43v64q0 17 13 30t30 13zM149 219q16 0 27.5 10.5t11.5 26.5t-11.5 26.5t-27.5 10.5t-27 -10.5t-11 -26.5t11 -26.5t27 -10.5zM231 246l23 -18
q4 -4 2 -7l-22 -37q-2 -4 -7 -2l-27 10q-8 -5 -19 -10l-4 -28q0 -5 -5 -5h-44q-6 0 -6 5l-4 28q-11 5 -19 10l-27 -10q-5 -2 -7 2l-21 37q-1 1 -0.5 3.5t1.5 3.5l23 18q0 1 -0.5 4.5t-0.5 5.5t0.5 5t0.5 5l-23 18q-3 3 -2 7l22 37q2 4 7 2l27 -10q8 5 19 10l4 28q0 5 6 5h43
q5 0 5 -5l5 -28q4 -2 18 -11l28 11q4 2 6 -2l22 -37q1 -1 0.5 -3.5t-1.5 -3.5l-23 -18q0 -1 0.5 -4.5t0.5 -5.5t-0.5 -5.5t-0.5 -4.5z" />
    <glyph glyph-name="uniE0DF" unicode="present_to_all" 
d="M213 256h-42l85 85l85 -85h-42v-85h-86v85zM448 106v300h-384v-300h384zM448 448q18 0 30.5 -12.5t12.5 -30.5v-298q0 -18 -12.5 -30.5t-30.5 -12.5h-384q-18 0 -30.5 12.5t-12.5 30.5v298q0 18 12.5 30.5t30.5 12.5h384z" />
    <glyph glyph-name="uniE0E0" unicode="import_contacts" 
d="M448 117v246q-33 10 -75 10q-65 0 -117 -32v-245q52 32 117 32q39 0 75 -11zM373 416q76 0 118 -32v-311q0 -4 -3.5 -7.5t-7.5 -3.5q-3 0 -5 1q-41 22 -102 22q-65 0 -117 -32q-43 32 -117 32q-54 0 -102 -23q-1 0 -2.5 -0.5t-2.5 -0.5q-4 0 -7.5 3t-3.5 7v313
q43 32 118 32q74 0 117 -32q43 32 117 32z" />
    <glyph glyph-name="uniE0E1" unicode="mail_outline" 
d="M256 277l171 107h-342zM427 128v213l-171 -106l-171 106v-213h342zM427 427q17 0 29.5 -13t12.5 -30v-256q0 -17 -12.5 -30t-29.5 -13h-342q-17 0 -29.5 13t-12.5 30v256q0 17 12.5 30t29.5 13h342z" />
    <glyph glyph-name="uniE0E2" unicode="screen_share" 
d="M277 203l86 80l-86 80v-46q-105 -15 -128 -125q43 58 128 58v-47zM427 128h85v-43h-512v43h85q-18 0 -30 12.5t-12 30.5v213q0 18 12 30.5t30 12.5h342q17 0 29.5 -12.5t12.5 -30.5v-213q0 -17 -12.5 -30t-29.5 -13z" />
    <glyph glyph-name="uniE0E3" unicode="stop_screen_share" 
d="M149 192q29 40 78 52l-34 34q-32 -31 -44 -86zM51 475l421 -421l-27 -27l-58 58h-387v43h85q-18 0 -30 12.5t-12 29.5v214q0 19 14 31l-33 33zM469 170q0 -25 -22 -37l-118 118l34 32l-86 79v-45q-2 -1 -5.5 -1t-5.5 -1l-112 111h273q17 0 29.5 -12t12.5 -30v-214z
M453 128h59v-43h-17z" />
    <glyph glyph-name="uniE0E4" unicode="call_missed_outgoing" 
d="M64 333l30 30l162 -162l119 119h-98v43h171v-171h-43v98l-149 -149z" />
    <glyph glyph-name="uniE0E5" unicode="rss_feed" 
d="M85 297q88 0 150 -62t62 -150h-61q0 62 -44.5 106.5t-106.5 44.5v61zM85 417q137 0 234.5 -97.5t97.5 -234.5h-60q0 113 -79.5 192.5t-192.5 79.5v60zM85 132q0 19 13.5 32.5t33.5 13.5t33 -13t13 -33t-13.5 -33.5t-32.5 -13.5q-20 0 -33.5 13.5t-13.5 33.5z" />
    <glyph glyph-name="uniE0E6" unicode="alternate_email" 
d="M256 192q26 0 45 19t19 45t-19 45t-45 19t-45 -19t-19 -45t19 -45t45 -19zM256 469q88 0 150.5 -62.5t62.5 -150.5v-31q0 -32 -21.5 -54t-52.5 -22q-39 0 -63 32q-32 -32 -76 -32t-75.5 31.5t-31.5 75.5t31.5 75.5t75.5 31.5t75.5 -31.5t31.5 -75.5v-31q0 -13 9.5 -23
t22.5 -10t22.5 10t9.5 23v31q0 70 -50.5 120.5t-120.5 50.5t-120.5 -50.5t-50.5 -120.5t50.5 -120.5t120.5 -50.5h107v-42h-107q-88 0 -150.5 62.5t-62.5 150.5t62.5 150.5t150.5 62.5z" />
    <glyph glyph-name="uniE0E7" unicode="mobile_screen_share" 
d="M273 230q-67 0 -102 -47q20 90 102 101v36l68 -64l-68 -63v37zM363 107v298h-214v-298h214zM363 490q17 0 29.5 -12.5t12.5 -29.5v-384q0 -17 -12.5 -30t-29.5 -13h-214q-17 0 -29.5 13t-12.5 30v384q0 17 12.5 30t29.5 13z" />
    <glyph glyph-name="uniE0E8" unicode="add_call" 
d="M448 384v-43h-64v-64h-43v64h-64v43h64v64h43v-64h64zM427 181q9 0 15 -6t6 -15v-75q0 -9 -6 -15t-15 -6q-150 0 -256.5 106.5t-106.5 256.5q0 9 6 15t15 6h75q9 0 15 -6t6 -15q0 -40 12 -76q4 -13 -5 -22l-47 -47q47 -92 141 -141l47 47q9 9 22 5q36 -12 76 -12z" />
    <glyph glyph-name="uniE0E9" unicode="cancel_presentation" 
d="M311 341l30 -30l-55 -55l55 -55l-30 -30l-55 55l-55 -55l-30 30l55 55l-55 55l30 30l55 -55zM448 448q17 0 30 -13t13 -30v-298q0 -17 -13 -30t-30 -13h-384q-17 0 -30 13t-13 30v298q0 17 13 30t30 13h384zM448 105v300h-384v-300h384z" />
    <glyph glyph-name="uniE0EA" unicode="pause_presentation" 
d="M277 341h43v-170h-43v170zM192 341h43v-170h-43v170zM448 448q17 0 30 -13t13 -30v-298q0 -17 -13 -30t-30 -13h-384q-17 0 -30 13t-13 30v298q0 17 13 30t30 13h384zM448 105v300h-384v-300h384z" />
    <glyph glyph-name="uniE0EB" unicode="unsubscribe" 
d="M256 288l149 75v42l-149 -74l-149 74v-42zM289 149h-182q-17 0 -30 13t-13 30v213q0 17 13 30t30 13h298q17 0 30 -13t13 -30v-153q-27 15 -53 15q-44 0 -75.5 -31.5t-31.5 -75.5q0 -2 0.5 -5.5t0.5 -5.5zM437 149v22h-85v-22h85zM395 235q31 0 52.5 -22t21.5 -53
t-21.5 -53t-52.5 -22t-53 22t-22 53t22 53t53 22z" />
    <glyph glyph-name="uniE0EC" unicode="cell_wifi" 
d="M139 331q40 40 96 40t96 -40l-28 -28q-29 29 -69 29t-68 -29zM193 276q17 17 41.5 17t41.5 -17l-41 -41zM84 385q62 62 151 62t151 -62l-28 -27q-51 51 -123.5 51t-123.5 -51zM469 43h-341l341 341v-341z" />
    <glyph glyph-name="uniE0ED" unicode="sentiment_satisfied_alt" 
d="M256 139q-37 0 -66.5 20.5t-42.5 53.5h35q25 -42 74 -42t74 42h35q-13 -33 -42.5 -53.5t-66.5 -20.5zM256 85q70 0 120.5 50.5t50.5 120.5t-50.5 120.5t-120.5 50.5t-120.5 -50.5t-50.5 -120.5t50.5 -120.5t120.5 -50.5zM256 469q88 0 150.5 -62.5t62.5 -150.5
t-62.5 -150.5t-150.5 -62.5t-150.5 62.5t-62.5 150.5t62.5 150.5t150.5 62.5zM181 277q-13 0 -22.5 9.5t-9.5 22.5t9.5 22.5t22.5 9.5t22.5 -9.5t9.5 -22.5t-9.5 -22.5t-22.5 -9.5zM331 277q-13 0 -22.5 9.5t-9.5 22.5t9.5 22.5t22.5 9.5t22.5 -9.5t9.5 -22.5t-9.5 -22.5
t-22.5 -9.5z" />
    <glyph glyph-name="uniE0EE" unicode="list_alt" 
d="M149 192h43v-43h-43v43zM149 277h43v-42h-43v42zM149 363h43v-43h-43v43zM235 192h128v-43h-128v43zM235 277h128v-42h-128v42zM235 363h128v-43h-128v43zM429 448q7 0 13 -5.5t6 -13.5v-346q0 -7 -6 -13t-13 -6h-346q-8 0 -13.5 6t-5.5 13v346q0 19 19 19h346zM405 405
h-298v-298h298v298z" />
    <glyph glyph-name="uniE145" unicode="add" 
d="M405 235h-128v-128h-42v128h-128v42h128v128h42v-128h128v-42z" />
    <glyph glyph-name="uniE146" unicode="add_box" 
d="M363 235v42h-86v86h-42v-86h-86v-42h86v-86h42v86h86zM405 448q17 0 30 -13t13 -30v-298q0 -17 -13 -30t-30 -13h-298q-18 0 -30.5 13t-12.5 30v298q0 17 12.5 30t30.5 13h298z" />
    <glyph glyph-name="uniE147" unicode="add_circle" 
d="M363 235v42h-86v86h-42v-86h-86v-42h86v-86h42v86h86zM256 469q88 0 150.5 -62.5t62.5 -150.5t-62.5 -150.5t-150.5 -62.5t-150.5 62.5t-62.5 150.5t62.5 150.5t150.5 62.5z" />
    <glyph glyph-name="uniE148" unicode="add_circle_outline" 
d="M256 85q70 0 120.5 50.5t50.5 120.5t-50.5 120.5t-120.5 50.5t-120.5 -50.5t-50.5 -120.5t50.5 -120.5t120.5 -50.5zM256 469q88 0 150.5 -62.5t62.5 -150.5t-62.5 -150.5t-150.5 -62.5t-150.5 62.5t-62.5 150.5t62.5 150.5t150.5 62.5zM277 363v-86h86v-42h-86v-86h-42
v86h-86v42h86v86h42z" />
    <glyph glyph-name="uniE149" unicode="archive" 
d="M109 405h294l-20 22h-256zM256 139l117 117h-74v43h-86v-43h-74zM438 400q10 -12 10 -27v-266q0 -17 -13 -30t-30 -13h-298q-17 0 -30 13t-13 30v266q0 15 10 27l29 36q10 12 25 12h256q15 0 25 -12z" />
    <glyph glyph-name="uniE14A" unicode="backspace" 
d="M405 179l-76 77l76 77l-30 30l-76 -77l-77 77l-30 -30l77 -77l-77 -77l30 -30l77 77l76 -77zM469 448q17 0 30 -13t13 -30v-298q0 -17 -13 -30t-30 -13h-320q-20 0 -34 19l-115 173l115 173q14 19 34 19h320z" />
    <glyph glyph-name="uniE14B" unicode="block" 
d="M256 85q70 0 120.5 50.5t50.5 120.5q0 60 -36 105l-240 -240q45 -36 105 -36zM85 256q0 -60 36 -105l240 240q-45 36 -105 36q-70 0 -120.5 -50.5t-50.5 -120.5zM256 469q88 0 150.5 -62.5t62.5 -150.5t-62.5 -150.5t-150.5 -62.5t-150.5 62.5t-62.5 150.5t62.5 150.5
t150.5 62.5z" />
    <glyph glyph-name="uniE14C" unicode="clear" 
d="M405 375l-119 -119l119 -119l-30 -30l-119 119l-119 -119l-30 30l119 119l-119 119l30 30l119 -119l119 119z" />
    <glyph glyph-name="uniE14D" unicode="content_copy" 
d="M405 64v299h-234v-299h234zM405 405q17 0 30 -12.5t13 -29.5v-299q0 -17 -13 -30t-30 -13h-234q-17 0 -30 13t-13 30v299q0 17 13 29.5t30 12.5h234zM341 491v-43h-256v-299h-42v299q0 17 12.5 30t29.5 13h256z" />
    <glyph glyph-name="uniE14E" unicode="content_cut" 
d="M405 448h64v-21l-149 -150l-43 43zM256 245q11 0 11 11t-11 11t-11 -11t11 -11zM128 85q17 0 30 12.5t13 30.5t-13 30.5t-30 12.5t-30 -12.5t-13 -30.5t13 -30.5t30 -12.5zM128 341q17 0 30 12.5t13 30.5t-13 30.5t-30 12.5t-30 -12.5t-13 -30.5t13 -30.5t30 -12.5z
M206 349l263 -264v-21h-64l-149 149l-50 -50q7 -15 7 -35q0 -35 -25 -60t-60 -25t-60 25t-25 60t25 60t60 25q20 0 35 -7l50 50l-50 50q-15 -7 -35 -7q-35 0 -60 25t-25 60t25 60t60 25t60 -25t25 -60q0 -20 -7 -35z" />
    <glyph glyph-name="uniE14F" unicode="content_paste" 
d="M405 85v342h-42v-64h-214v64h-42v-342h298zM256 469q-9 0 -15 -6t-6 -15t6 -15t15 -6t15 6t6 15t-6 15t-15 6zM405 469q17 0 30 -12.5t13 -29.5v-342q0 -17 -13 -29.5t-30 -12.5h-298q-17 0 -30 12.5t-13 29.5v342q0 17 13 29.5t30 12.5h89q7 19 23 31t37 12t37 -12
t23 -31h89z" />
    <glyph glyph-name="uniE150" unicode="create" 
d="M442 362l-39 -39l-80 80l39 39q6 6 15 6t15 -6l50 -50q6 -6 6 -15t-6 -15zM64 144l236 236l80 -80l-236 -236h-80v80z" />
    <glyph glyph-name="uniE151" unicode="drafts" 
d="M256 235l176 110l-176 103l-176 -103zM469 341v-213q0 -17 -12.5 -30t-29.5 -13h-342q-17 0 -29.5 13t-12.5 30v213q0 25 20 37l193 113l193 -113q20 -12 20 -37z" />
    <glyph glyph-name="uniE152" unicode="filter_list" 
d="M128 235v42h256v-42h-256zM64 384h384v-43h-384v43zM213 128v43h86v-43h-86z" />
    <glyph glyph-name="uniE153" unicode="flag" 
d="M307 384h120v-213h-150l-8 42h-120v-149h-42v363h192z" />
    <glyph glyph-name="uniE154" unicode="forward" 
d="M256 341v86l171 -171l-171 -171v86h-171v170h171z" />
    <glyph glyph-name="uniE155" unicode="gesture" 
d="M296 116q14 0 28 18.5t18 56.5q-30 -8 -46 -27t-16 -32q0 -7 5 -11.5t11 -4.5zM98 365l-37 36q10 12 18 20q27 27 58 27q19 0 36.5 -15t17.5 -46q0 -30 -28 -70q-28 -39 -39 -75q-6 -17 -3.5 -29t10.5 -12q9 0 24 18q22 22 49 58q48 60 105 60q42 0 62.5 -27.5
t23.5 -61.5h53v-53h-52q-6 -69 -37 -100t-64 -31q-28 0 -48 19.5t-20 46.5q0 33 30 69t85 46q-1 8 -1.5 11t-3 9.5t-6 9.5t-10.5 5.5t-17 2.5q-28 0 -87 -73q-17 -21 -23.5 -28.5t-18.5 -17.5t-23 -13q-35 -11 -60 13t-25 60q0 15 5.5 33t14.5 35t17 30.5t15.5 24.5t8.5 12
q17 28 6 32q-7 3 -36 -26z" />
    <glyph glyph-name="uniE156" unicode="inbox" 
d="M405 192v213h-299v-213h86q0 -26 19 -45t45 -19t45 19t19 45h85zM405 448q17 0 30 -12.5t13 -30.5v-298q0 -17 -13 -30t-30 -13h-299q-18 0 -30 12.5t-12 30.5v298q0 18 12 30.5t30 12.5h299z" />
    <glyph glyph-name="uniE157" unicode="link" 
d="M363 363q44 0 75 -31.5t31 -75.5t-31 -75.5t-75 -31.5h-86v41h86q27 0 46.5 19.5t19.5 46.5t-19.5 46.5t-46.5 19.5h-86v41h86zM171 235v42h170v-42h-170zM83 256q0 -27 19.5 -46.5t46.5 -19.5h86v-41h-86q-44 0 -75 31.5t-31 75.5t31 75.5t75 31.5h86v-41h-86
q-27 0 -46.5 -19.5t-19.5 -46.5z" />
    <glyph glyph-name="uniE158" unicode="mail" 
d="M427 341v43l-171 -107l-171 107v-43l171 -106zM427 427q17 0 29.5 -13t12.5 -30v-256q0 -17 -12.5 -30t-29.5 -13h-342q-17 0 -29.5 13t-12.5 30v256q0 17 12.5 30t29.5 13h342z" />
    <glyph glyph-name="uniE159" unicode="markunread" 
d="M427 341v43l-171 -107l-171 107v-43l171 -106zM427 427q17 0 29.5 -13t12.5 -30v-256q0 -17 -12.5 -30t-29.5 -13h-342q-17 0 -29.5 13t-12.5 30v256q0 17 12.5 30t29.5 13h342z" />
    <glyph glyph-name="uniE15A" unicode="redo" 
d="M393 286l76 77v-192h-192l78 77q-48 40 -110 40q-56 0 -100.5 -32.5t-61.5 -84.5l-50 16q22 68 80.5 111t131.5 43q85 0 148 -55z" />
    <glyph glyph-name="uniE15B" unicode="remove" 
d="M405 235h-298v42h298v-42z" />
    <glyph glyph-name="uniE15C" unicode="remove_circle" 
d="M363 235v42h-214v-42h214zM256 469q88 0 150.5 -62.5t62.5 -150.5t-62.5 -150.5t-150.5 -62.5t-150.5 62.5t-62.5 150.5t62.5 150.5t150.5 62.5z" />
    <glyph glyph-name="uniE15D" unicode="remove_circle_outline" 
d="M256 85q70 0 120.5 50.5t50.5 120.5t-50.5 120.5t-120.5 50.5t-120.5 -50.5t-50.5 -120.5t50.5 -120.5t120.5 -50.5zM256 469q88 0 150.5 -62.5t62.5 -150.5t-62.5 -150.5t-150.5 -62.5t-150.5 62.5t-62.5 150.5t62.5 150.5t150.5 62.5zM149 277h214v-42h-214v42z" />
    <glyph glyph-name="uniE15E" unicode="reply" 
d="M213 320q104 -15 160.5 -79.5t74.5 -155.5q-77 109 -235 109v-87l-149 149l149 149v-85z" />
    <glyph glyph-name="uniE15F" unicode="reply_all" 
d="M277 320q104 -15 160.5 -79.5t74.5 -155.5q-77 109 -235 109v-87l-149 149l149 149v-85zM149 341l-85 -85l85 -85v-64l-149 149l149 149v-64z" />
    <glyph glyph-name="uniE160" unicode="report" 
d="M277 235v128h-42v-128h42zM256 143q11 0 19.5 8.5t8.5 19.5t-8.5 19t-19.5 8t-19.5 -8t-8.5 -19t8.5 -19.5t19.5 -8.5zM336 448l112 -112v-160l-112 -112h-160l-112 112v160l112 112h160z" />
    <glyph glyph-name="uniE161" unicode="save" 
d="M320 320v85h-213v-85h213zM256 107q26 0 45 19t19 45t-19 45t-45 19t-45 -19t-19 -45t19 -45t45 -19zM363 448l85 -85v-256q0 -17 -13 -30t-30 -13h-298q-18 0 -30.5 13t-12.5 30v298q0 17 12.5 30t30.5 13h256z" />
    <glyph glyph-name="uniE162" unicode="select_all" 
d="M192 320v-128h128v128h-128zM149 149v214h214v-214h-214zM320 405v43h43v-43h-43zM320 64v43h43v-43h-43zM405 149v43h43v-43h-43zM405 320v43h43v-43h-43zM405 64v43h43q0 -17 -13 -30t-30 -13zM405 235v42h43v-42h-43zM235 64v43h42v-43h-42zM192 448v-43h-43v43h43z
M64 149v43h43v-43h-43zM107 64q-17 0 -30 13t-13 30h43v-43zM405 448q17 0 30 -13t13 -30h-43v43zM277 448v-43h-42v43h42zM64 320v43h43v-43h-43zM149 64v43h43v-43h-43zM64 235v42h43v-42h-43zM64 405q0 17 13 30t30 13v-43h-43z" />
    <glyph glyph-name="uniE163" unicode="send" 
d="M43 64v149l320 43l-320 43v149l448 -192z" />
    <glyph glyph-name="uniE164" unicode="sort" 
d="M64 235v42h256v-42h-256zM64 384h384v-43h-384v43zM64 128v43h128v-43h-128z" />
    <glyph glyph-name="uniE165" unicode="text_format" 
d="M256 384l-40 -107h80zM203 239l-20 -47h-44l101 235h32l101 -235h-44l-20 47h-106zM107 149h298v-42h-298v42z" />
    <glyph glyph-name="uniE166" unicode="undo" 
d="M267 341q73 0 131 -43t81 -111l-50 -16q-17 52 -61.5 84.5t-100.5 32.5q-62 0 -110 -40l78 -77h-192v192l76 -77q63 55 148 55z" />
    <glyph glyph-name="uniE167" unicode="font_download" 
d="M340 117h45l-109 278h-40l-109 -278h45l24 64h120zM427 469q17 0 29.5 -12.5t12.5 -29.5v-342q0 -17 -12.5 -29.5t-29.5 -12.5h-342q-17 0 -29.5 12.5t-12.5 29.5v342q0 17 12.5 29.5t29.5 12.5h342zM212 224l44 118l44 -118h-88z" />
    <glyph glyph-name="uniE168" unicode="move_to_inbox" 
d="M341 299l-85 -86l-85 86h42v64h86v-64h42zM405 192v213h-299v-213h86q0 -26 19 -45t45 -19t45 19t19 45h85zM405 448q17 0 30 -13t13 -30v-298q0 -17 -13 -30t-30 -13h-299q-18 0 -30 12.5t-12 30.5v298q0 18 12 30.5t30 12.5h299z" />
    <glyph glyph-name="uniE169" unicode="unarchive" 
d="M109 405h294l-20 22h-256zM256 309l-117 -117h74v-43h86v43h74zM438 401q10 -12 10 -28v-266q0 -17 -13 -30t-30 -13h-298q-18 0 -30.5 13t-12.5 30v266q0 16 10 28l29 35q10 12 25 12h256q15 0 25 -12z" />
    <glyph glyph-name="uniE16A" unicode="next_week" 
d="M235 117l85 86l-85 85l-22 -21l64 -64l-64 -64zM213 405v-42h86v42h-86zM299 448q17 0 29.5 -12.5t12.5 -30.5v-42h86q17 0 29.5 -13t12.5 -30v-235q0 -17 -12.5 -29.5t-29.5 -12.5h-342q-17 0 -29.5 12.5t-12.5 29.5v235q0 17 12.5 30t29.5 13h86v42q0 17 12.5 30
t29.5 13h86z" />
    <glyph glyph-name="uniE16B" unicode="weekend" 
d="M384 405q17 0 30 -12.5t13 -29.5v-46q-19 -7 -31 -23t-12 -37v-44h-256v44q0 21 -12 37t-31 23v46q0 17 13 29.5t30 12.5h256zM448 299q17 0 30 -13t13 -30v-107q0 -17 -13 -29.5t-30 -12.5h-384q-17 0 -30 12.5t-13 29.5v107q0 17 13 30t30 13t30 -13t13 -30v-64h298v64
q0 17 13 30t30 13z" />
    <glyph glyph-name="uniE16C" unicode="delete_sweep" 
d="M299 405v-42h-256v42h64l21 22h85l22 -22h64zM64 128v213h213v-213q0 -17 -12.5 -30t-29.5 -13h-128q-17 0 -30 13t-13 30zM320 256h128v-43h-128v43zM320 341h149v-42h-149v42zM320 171h85v-43h-85v43z" />
    <glyph glyph-name="uniE16D" unicode="low_priority" 
d="M43 267q0 57 40.5 97.5t97.5 40.5h75v-42h-75q-40 0 -68 -28t-28 -68t28 -68t68 -28h11v42l64 -64l-64 -64v43h-11q-57 0 -97.5 41t-40.5 98zM299 171h170v-43h-170v43zM299 288h170v-43h-170v43zM299 405h170v-42h-170v42z" />
    <glyph glyph-name="uniE16E" unicode="outlined_flag" 
d="M384 213v128h-107l-21 43h-107v-128h128l22 -43h85zM299 384h128v-213h-150l-21 42h-107v-149h-42v363h170z" />
    <glyph glyph-name="uniE16F" unicode="link_off" 
d="M43 421l27 27l357 -357l-27 -27l-86 85h-37v37l-48 49h-58v42h15l-44 44q-25 -3 -42 -21.5t-17 -43.5q0 -27 19.5 -46.5t46.5 -19.5h86v-41h-86q-44 0 -75 31.5t-31 75.5q0 33 18 60t48 39zM341 277v-42h-4l-42 42h46zM363 363q44 0 75 -31.5t31 -75.5q0 -65 -58 -95
l-31 31q21 5 35 23t14 41q0 27 -19.5 46.5t-46.5 19.5h-86v41h86z" />
    <glyph glyph-name="uniE170" unicode="report_off" 
d="M256 143q11 0 19.5 8.5t8.5 19.5t-8.5 19t-19.5 8t-19.5 -8t-8.5 -19t8.5 -19.5t19.5 -8.5zM475 48l-27 -27l-77 78l-35 -35h-160l-112 112v160l35 35l-78 77l27 27zM235 363v-20l-82 82l23 23h160l112 -112v-160l-23 -23l-148 147v63h-42z" />
    <glyph glyph-name="uniE171" unicode="save_alt" 
d="M277 242l56 55l30 -30l-107 -107l-107 107l30 30l56 -55v206h42v-206zM405 256h43v-149q0 -17 -13 -30t-30 -13h-298q-17 0 -30 13t-13 30v149h43v-149h298v149z" />
    <glyph glyph-name="uniE172" unicode="ballot" 
d="M149 213h64v-64h-64v64zM128 128h107v107h-107v-107zM149 363h64v-64h-64v64zM128 277h107v107h-107v-107zM405 64h-298q-17 0 -30 13t-13 30v298q0 17 13 30t30 13h298q17 0 30 -13t13 -30v-298q0 -17 -13 -30t-30 -13zM277 160h107v43h-107v-43zM277 309h107v43h-107
v-43z" />
    <glyph glyph-name="uniE173" unicode="file_copy" 
d="M299 256h117l-117 117v-117zM320 405l128 -128v-213q0 -17 -13 -30t-30 -13h-235q-17 0 -29.5 13t-12.5 30v299q0 17 13 29.5t30 12.5h149zM341 491v-43h-256v-299h-42v299q0 17 12.5 30t29.5 13h256z" />
    <glyph glyph-name="uniE174" unicode="how_to_reg" 
d="M235 256q35 0 60 25t25 60t-25 60.5t-60 25.5t-60.5 -25.5t-25.5 -60.5t25.5 -60t60.5 -25v0zM330 75l-74 74l30 30l44 -44l109 110l30 -30zM192 149l64 -64h-192v43q0 38 58.5 61.5t112.5 23.5q13 0 21 -1z" />
    <glyph glyph-name="uniE175" unicode="how_to_vote" 
d="M272 463q6 6 15 6.5t15 -6.5l106 -106q6 -6 6 -15t-6 -15l-136 -135q-6 -6 -15 -6t-15 6l-106 105q-6 6 -6 15t6 15zM363 342l-76 76l-105 -106l75 -75zM384 235l64 -64v-86q0 -18 -12.5 -30t-30.5 -12h-299q-17 0 -29.5 12.5t-12.5 29.5v86l64 64h18l42 -43h-43l-38 -43
h298l-37 43h-41l42 43h15z" />
    <glyph glyph-name="uniE176" unicode="waves" 
d="M363 339q29 0 63 -17q24 -12 43 -12v-42q-29 0 -63 17q-26 13 -43 13q-18 0 -44 -13q-34 -17 -63 -17t-63 17q-26 13 -44 13q-17 0 -43 -13q-34 -17 -63 -17v42q19 0 43 12q34 17 63 17t63 -17q24 -12 44 -12t44 12q34 17 63 17zM426 417q26 -13 43 -13v-41q-29 0 -63 17
q-26 13 -43 13q-18 0 -44 -13q-34 -17 -63 -17t-63 17q-26 13 -44 13q-17 0 -43 -13q-34 -17 -63 -17v41q17 0 43 13q34 17 63 17t63 -17q26 -13 44 -13t44 13q34 17 63 17t63 -17zM363 244q29 0 63 -17q24 -12 43 -12v-42q-29 0 -63 17q-26 13 -43 13q-18 0 -44 -13
q-34 -17 -63 -17t-63 17q-26 13 -44 13q-17 0 -43 -13q-34 -17 -63 -17v42q19 0 43 12q34 17 63 17t63 -17q24 -12 44 -12t44 12q34 17 63 17zM363 150q27 0 63 -18q24 -12 43 -12v-42q-29 0 -63 17q-26 13 -43 13q-18 0 -44 -13q-34 -17 -63 -17t-63 17q-26 13 -44 13
q-17 0 -43 -13q-34 -17 -63 -17v42q19 0 43 12q36 18 63 18t63 -18q24 -12 44 -12t44 12q36 18 63 18z" />
    <glyph glyph-name="uniE177" unicode="where_to_vote" 
d="M223 213l140 141l-30 30l-110 -111l-44 45l-30 -30zM256 469q62 0 105.5 -43.5t43.5 -105.5q0 -31 -15.5 -71t-37.5 -75t-43.5 -65.5t-36.5 -48.5l-16 -17q-6 7 -16 18.5t-36 46t-45.5 67t-35.5 73.5t-16 72q0 62 43.5 105.5t105.5 43.5z" />
    <glyph glyph-name="uniE190" unicode="access_alarm" 
d="M256 85q62 0 105.5 44t43.5 106t-43.5 105.5t-105.5 43.5t-105.5 -43.5t-43.5 -105.5t43.5 -106t105.5 -44zM256 427q80 0 136 -56.5t56 -135.5t-56 -135.5t-136 -56.5t-136 56.5t-56 135.5t56 135.5t136 56.5zM267 341v-112l85 -50l-16 -26l-101 60v128h32zM168 440
l-98 -82l-27 32l98 82zM469 390l-27 -33l-98 83l27 32z" />
    <glyph glyph-name="uniE191" unicode="access_alarms" 
d="M256 85q62 0 105.5 44t43.5 106t-43.5 105.5t-105.5 43.5t-105.5 -43.5t-43.5 -105.5t43.5 -106t105.5 -44zM256 427q80 0 136 -56t56 -136t-56 -136t-136 -56t-136 56t-56 136t56 136t136 56zM267 341v-113l85 -51l-17 -26l-100 62v128h32zM169 439l-99 -81l-27 32
l98 81zM469 390l-27 -32l-99 84l28 32z" />
    <glyph glyph-name="uniE192" unicode="access_time" 
d="M267 363v-112l96 -57l-16 -27l-112 68v128h32zM256 85q70 0 120.5 50.5t50.5 120.5t-50.5 120.5t-120.5 50.5t-120.5 -50.5t-50.5 -120.5t50.5 -120.5t120.5 -50.5zM256 469q88 0 150.5 -62.5t62.5 -150.5t-62.5 -150.5t-150.5 -62.5t-150.5 62.5t-62.5 150.5t62.5 150.5
t150.5 62.5z" />
    <glyph glyph-name="uniE193" unicode="add_alarm" 
d="M277 320v-64h64v-43h-64v-64h-42v64h-64v43h64v64h42zM256 85q62 0 105.5 44t43.5 106t-43.5 105.5t-105.5 43.5t-105.5 -43.5t-43.5 -105.5t43.5 -106t105.5 -44zM256 427q80 0 136 -56.5t56 -135.5t-56 -135.5t-136 -56.5t-136 56.5t-56 135.5t56 135.5t136 56.5z
M469 390l-27 -33l-98 83l27 32zM168 440l-98 -82l-27 32l98 82z" />
    <glyph glyph-name="uniE194" unicode="airplanemode_inactive" 
d="M64 400l27 27l336 -336l-27 -27l-123 122v-79l43 -32v-32l-75 21l-74 -21v32l42 32v117l-170 -53v42l127 80zM277 320l171 -107v-42l-68 21l-167 167v78q0 13 9.5 22.5t22.5 9.5t22.5 -9.5t9.5 -22.5v-117z" />
    <glyph glyph-name="uniE195" unicode="airplanemode_active" 
d="M217 320zM448 171l-171 53v-117l43 -32v-32l-75 21l-74 -21v32l42 32v117l-170 -53v42l170 107v117q0 13 9.5 22.5t22.5 9.5t22.5 -9.5t9.5 -22.5v-117l171 -107v-42z" />
    <glyph glyph-name="uniE19C" unicode="battery_alert" 
d="M277 213v107h-42v-107h42zM277 128v43h-42v-43h42zM334 427q12 0 20.5 -8.5t8.5 -20.5v-327q0 -12 -8.5 -20t-20.5 -8h-156q-12 0 -20.5 8t-8.5 20v327q0 12 8.5 20.5t20.5 8.5h35v42h86v-42h35z" />
    <glyph glyph-name="uniE1A3" unicode="battery_charging_full" 
d="M235 85l85 160h-43v118l-85 -160h43v-118zM334 427q12 0 20.5 -8.5t8.5 -20.5v-327q0 -12 -8.5 -20t-20.5 -8h-156q-12 0 -20.5 8t-8.5 20v327q0 12 8.5 20.5t20.5 8.5h35v42h86v-42h35z" />
    <glyph glyph-name="uniE1A4" unicode="battery_full" 
d="M334 427q12 0 20.5 -8.5t8.5 -20.5v-327q0 -12 -8.5 -20t-20.5 -8h-156q-12 0 -20.5 8t-8.5 20v327q0 12 8.5 20.5t20.5 8.5h35v42h86v-42h35z" />
    <glyph glyph-name="uniE1A5" unicode="battery_std" 
d="M334 427q12 0 20.5 -8.5t8.5 -20.5v-327q0 -12 -8.5 -20t-20.5 -8h-156q-12 0 -20.5 8t-8.5 20v327q0 12 8.5 20.5t20.5 8.5h35v42h86v-42h35z" />
    <glyph glyph-name="uniE1A6" unicode="battery_unknown" 
d="M305 241q15 15 15 36q0 26 -19 45t-45 19t-45 -19t-19 -45h32q0 13 9 22.5t23 9.5t23 -9.5t9 -22.5t-9 -22l-20 -20q-20 -20 -20 -43h34q0 16 18 34zM276 129v41h-40v-41h40zM334 427q12 0 20.5 -8.5t8.5 -20.5v-327q0 -12 -8.5 -20t-20.5 -8h-156q-12 0 -20.5 8t-8.5 20
v327q0 12 8.5 20.5t20.5 8.5h35v42h86v-42h35z" />
    <glyph glyph-name="uniE1A7" unicode="bluetooth" 
d="M317 164l-40 41v-81zM277 388v-81l40 41zM378 348l-92 -92l92 -92l-122 -121h-21v162l-98 -98l-30 30l119 119l-119 119l30 30l98 -98v162h21z" />
    <glyph glyph-name="uniE1A8" unicode="bluetooth_connected" 
d="M405 299l43 -43l-43 -43l-42 43zM317 164l-40 41v-81zM277 388v-81l40 41zM378 348l-92 -92l92 -92l-122 -121h-21v162l-98 -98l-30 30l119 119l-119 119l30 30l98 -98v162h21zM149 256l-42 -43l-43 43l43 43z" />
    <glyph glyph-name="uniE1A9" unicode="bluetooth_disabled" 
d="M277 124l40 40l-40 41v-81zM115 427l312 -312l-30 -30l-49 49l-92 -91h-21v162l-98 -98l-30 30l119 119l-141 141zM277 388v-69l-42 43v107h21l122 -121l-65 -65l-30 30l34 35z" />
    <glyph glyph-name="uniE1AA" unicode="bluetooth_searching" 
d="M275 164l-40 41v-81zM235 388v-81l40 41zM335 348l-92 -92l92 -92l-122 -121h-21v162l-98 -98l-30 30l119 119l-119 119l30 30l98 -98v162h21zM417 369q31 -50 31 -111t-33 -113l-25 25q21 42 21 86t-21 86zM304 256l49 49q10 -25 10 -49q0 -25 -10 -50z" />
    <glyph glyph-name="uniE1AB" unicode="brightness_auto" 
d="M305 171h41l-69 192h-42l-69 -192h41l15 42h68zM427 327l70 -71l-70 -71v-100h-100l-71 -70l-71 70h-100v100l-70 71l70 71v100h100l71 70l71 -70h100v-100zM231 242l25 78l25 -78h-50z" />
    <glyph glyph-name="uniE1AC" unicode="brightness_high" 
d="M256 341q35 0 60 -25t25 -60t-25 -60t-60 -25t-60 25t-25 60t25 60t60 25zM256 128q53 0 90.5 37.5t37.5 90.5t-37.5 90.5t-90.5 37.5t-90.5 -37.5t-37.5 -90.5t37.5 -90.5t90.5 -37.5zM427 327l70 -71l-70 -71v-100h-100l-71 -70l-71 70h-100v100l-70 71l70 71v100h100
l71 70l71 -70h100v-100z" />
    <glyph glyph-name="uniE1AD" unicode="brightness_low" 
d="M256 128q53 0 90.5 37.5t37.5 90.5t-37.5 90.5t-90.5 37.5t-90.5 -37.5t-37.5 -90.5t37.5 -90.5t90.5 -37.5zM427 185v-100h-100l-71 -70l-71 70h-100v100l-70 71l70 71v100h100l71 70l71 -70h100v-100l70 -71z" />
    <glyph glyph-name="uniE1AE" unicode="brightness_medium" 
d="M256 128q53 0 90.5 37.5t37.5 90.5t-37.5 90.5t-90.5 37.5v-256zM427 185v-100h-100l-71 -70l-71 70h-100v100l-70 71l70 71v100h100l71 70l71 -70h100v-100l70 -71z" />
    <glyph glyph-name="uniE1AF" unicode="data_usage" 
d="M256 107q72 0 116 56l56 -33q-64 -87 -172 -87q-88 0 -150.5 62.5t-62.5 150.5q0 83 55.5 143.5t136.5 68.5v-64q-54 -8 -91 -50t-37 -98q0 -62 43.5 -105.5t105.5 -43.5zM277 468q81 -8 136.5 -68.5t55.5 -143.5q0 -48 -18 -87l-56 33q10 28 10 54q0 56 -37 98t-91 50
v64z" />
    <glyph glyph-name="uniE1B0" unicode="developer_mode" 
d="M363 107v42h42v-85q0 -17 -12.5 -30t-29.5 -13h-214q-17 0 -29.5 13t-12.5 30v85h42v-42h214zM213 188l-30 -30l-98 98l98 98l30 -30l-67 -68zM329 158l-30 30l67 68l-67 68l30 30l98 -98zM149 405v-42h-42v85q0 17 12.5 30t29.5 13l214 -1q17 0 29.5 -12.5t12.5 -29.5
v-85h-42v42h-214z" />
    <glyph glyph-name="uniE1B1" unicode="devices" 
d="M469 149v150h-85v-150h85zM491 341q9 0 15 -6t6 -15v-213q0 -9 -6 -15.5t-15 -6.5h-128q-9 0 -15.5 6.5t-6.5 15.5v213q0 9 6.5 15t15.5 6h128zM85 384v-235h214v-64h-299v64h43v235q0 17 12.5 30t29.5 13h384v-43h-384z" />
    <glyph glyph-name="uniE1B2" unicode="dvr" 
d="M149 256v-43h-42v43h42zM149 341v-42h-42v42h42zM405 256v-43h-234v43h234zM405 341v-42h-234v42h234zM448 149v256h-384v-256h384zM448 448q17 0 30 -13t13 -30l-1 -256q0 -17 -12.5 -29.5t-29.5 -12.5h-107v-43h-170v43h-107q-17 0 -30 12.5t-13 29.5v256q0 17 13 30
t30 13h384z" />
    <glyph glyph-name="uniE1B3" unicode="gps_fixed" 
d="M256 107q62 0 105.5 43.5t43.5 105.5t-43.5 105.5t-105.5 43.5t-105.5 -43.5t-43.5 -105.5t43.5 -105.5t105.5 -43.5zM447 277h44v-42h-44q-7 -67 -55 -115t-115 -55v-44h-42v44q-67 7 -115 55t-55 115h-44v42h44q7 67 55 115t115 55v44h42v-44q67 -7 115 -55t55 -115z
M256 341q35 0 60 -25t25 -60t-25 -60t-60 -25t-60 25t-25 60t25 60t60 25z" />
    <glyph glyph-name="uniE1B4" unicode="gps_not_fixed" 
d="M256 107q62 0 105.5 43.5t43.5 105.5t-43.5 105.5t-105.5 43.5t-105.5 -43.5t-43.5 -105.5t43.5 -105.5t105.5 -43.5zM447 277h44v-42h-44q-7 -67 -55 -115t-115 -55v-44h-42v44q-67 7 -115 55t-55 115h-44v42h44q7 67 55 115t115 55v44h42v-44q67 -7 115 -55t55 -115z
" />
    <glyph glyph-name="uniE1B5" unicode="gps_off" 
d="M347 138l-209 209q-31 -41 -31 -91q0 -62 43.5 -105.5t105.5 -43.5q50 0 91 31zM64 421l27 27l357 -357l-27 -27l-44 44q-45 -37 -100 -43v-44h-42v44q-67 7 -115 55t-55 115h-44v42h44q6 55 43 100zM447 277h44v-42h-44q-5 -39 -21 -68l-32 32q11 27 11 57
q0 62 -43.5 105.5t-105.5 43.5q-30 0 -57 -11l-32 32q31 16 68 21v44h42v-44q67 -7 115 -55t55 -115z" />
    <glyph glyph-name="uniE1B6" unicode="location_disabled" 
d="M347 138l-209 209q-31 -41 -31 -91q0 -62 43.5 -105.5t105.5 -43.5q50 0 91 31zM64 421l27 27l357 -357l-27 -27l-44 44q-45 -37 -100 -43v-44h-42v44q-67 7 -115 55t-55 115h-44v42h44q6 55 43 100zM447 277h44v-42h-44q-5 -39 -21 -68l-32 32q11 27 11 57
q0 62 -43.5 105.5t-105.5 43.5q-30 0 -57 -11l-32 32q31 16 68 21v44h42v-44q67 -7 115 -55t55 -115z" />
    <glyph glyph-name="uniE1B7" unicode="location_searching" 
d="M256 107q62 0 105.5 43.5t43.5 105.5t-43.5 105.5t-105.5 43.5t-105.5 -43.5t-43.5 -105.5t43.5 -105.5t105.5 -43.5zM447 277h44v-42h-44q-7 -67 -55 -115t-115 -55v-44h-42v44q-67 7 -115 55t-55 115h-44v42h44q7 67 55 115t115 55v44h42v-44q67 -7 115 -55t55 -115z
" />
    <glyph glyph-name="uniE1B8" unicode="graphic_eq" 
d="M405 299h43v-86h-43v86zM320 128v256h43v-256h-43zM64 213v86h43v-86h-43zM235 43v426h42v-426h-42zM149 128v256h43v-256h-43z" />
    <glyph glyph-name="uniE1B9" unicode="network_cell" 
d="M469 43h-426l426 426v-426z" />
    <glyph glyph-name="uniE1BA" unicode="network_wifi" 
d="M436 279l1 -1l-181 -224l-181 224l1 1l-68 84q121 85 248 85t248 -85z" />
    <glyph glyph-name="uniE1BB" unicode="nfc" 
d="M384 384v-256h-256v256h85v-43h-42v-170h170v170h-64v-48q22 -12 22 -37q0 -17 -13 -30t-30 -13t-30 13t-13 30q0 25 22 37v48q0 17 12.5 30t29.5 13h107zM427 85v342h-342v-342h342zM427 469q17 0 29.5 -12.5t12.5 -29.5v-342q0 -17 -12.5 -29.5t-29.5 -12.5h-342
q-17 0 -29.5 12.5t-12.5 29.5v342q0 17 12.5 29.5t29.5 12.5h342z" />
    <glyph glyph-name="uniE1BC" unicode="now_wallpaper" 
d="M85 235v-150h150v-42h-150q-17 0 -29.5 12.5t-12.5 29.5v150h42zM427 85v150h42v-150q0 -17 -12.5 -29.5t-29.5 -12.5h-150v42h150zM427 469q17 0 29.5 -12.5t12.5 -29.5v-150h-42v150h-150v42h150zM363 331q0 -13 -9.5 -22.5t-22.5 -9.5t-22.5 9.5t-9.5 22.5t9.5 22.5
t22.5 9.5t22.5 -9.5t9.5 -22.5zM213 235l64 -79l43 57l64 -85h-256zM85 427v-150h-42v150q0 17 12.5 29.5t29.5 12.5h150v-42h-150z" />
    <glyph glyph-name="uniE1BD" unicode="now_widgets" 
d="M355 476l121 -121l-121 -120h93v-171h-171v171h78l-120 120v-78h-171v171h171v-93zM64 64v171h171v-171h-171z" />
    <glyph glyph-name="uniE1BE" unicode="screen_lock_landscape" 
d="M230 299v-22h52v22q0 10 -7.5 17.5t-18.5 7.5t-18.5 -7.5t-7.5 -17.5zM213 171q-9 0 -15 6t-6 15v64q0 9 6 15t15 6v22q0 17 12.5 29.5t30.5 12.5t30.5 -12t12.5 -30v-22q9 0 15 -6t6 -15v-64q0 -9 -6 -15t-15 -6h-86zM405 149v214h-298v-214h298zM448 405q17 0 30 -12.5
t13 -29.5v-214q0 -17 -13 -29.5t-30 -12.5h-384q-17 0 -30 12.5t-13 29.5v214q0 17 13 29.5t30 12.5h384z" />
    <glyph glyph-name="uniE1BF" unicode="screen_lock_portrait" 
d="M363 107v298h-214v-298h214zM363 491q17 0 29.5 -13t12.5 -30v-384q0 -17 -12.5 -30t-29.5 -13h-214q-17 0 -29.5 13t-12.5 30v384q0 17 12.5 30t29.5 13h214zM230 299v-22h52v22q0 10 -7.5 17.5t-18.5 7.5t-18.5 -7.5t-7.5 -17.5zM213 171q-9 0 -15 6t-6 15v64q0 9 6 15
t15 6v22q0 17 12.5 29.5t30.5 12.5t30.5 -12t12.5 -30v-22q9 0 15 -6t6 -15v-64q0 -9 -6 -15t-15 -6h-86z" />
    <glyph glyph-name="uniE1C0" unicode="screen_lock_rotation" 
d="M358 459v-11h73v11q0 15 -10.5 25.5t-25.5 10.5t-26 -10.5t-11 -25.5zM341 320q-9 0 -15 6t-6 15v86q0 9 6 15t15 6v11q0 22 16 37.5t38 15.5t37.5 -15.5t15.5 -37.5v-11q9 0 15 -6t6 -15v-86q0 -9 -6 -15t-15 -6h-107zM181 75l28 28l81 -81l-14 -1q-100 0 -173.5 68
t-81.5 167h32q6 -59 40.5 -107.5t87.5 -73.5zM496 240q10 -9 10 -22.5t-10 -23.5l-136 -135q-9 -10 -22 -10t-23 10l-256 256q-10 9 -10 22t10 23l135 136q9 10 22.5 10t23.5 -10l52 -52l-30 -30l-45 44l-121 -120l242 -242l120 121l-47 47l30 30z" />
    <glyph glyph-name="uniE1C1" unicode="screen_rotation" 
d="M160 54l29 28l81 -81l-14 -1q-100 0 -173.5 68t-81.5 167h32q6 -60 40 -108t87 -73zM316 60l136 136l-256 256l-136 -136zM218 475l257 -257q10 -9 10 -22t-10 -23l-136 -136q-9 -10 -22 -10t-23 10l-257 257q-10 9 -10 22t10 23l136 136q9 10 22 10t23 -10zM352 458
l-29 -28l-81 81l14 1q100 0 173.5 -68t81.5 -167h-32q-6 60 -40 108t-87 73z" />
    <glyph glyph-name="uniE1C2" unicode="sd_storage" 
d="M384 341v86h-43v-86h43zM320 341v86h-43v-86h43zM256 341v86h-43v-86h43zM384 469q17 0 30 -12.5t13 -29.5v-342q0 -17 -13 -29.5t-30 -12.5h-256q-17 0 -30 12.5t-13 29.5l1 256l127 128h171z" />
    <glyph glyph-name="uniE1C3" unicode="settings_system_daydream" 
d="M448 106v300h-384v-300h384zM448 448q17 0 30 -13t13 -30v-298q0 -17 -13 -30t-30 -13h-384q-17 0 -30 13t-13 30v298q0 17 13 30t30 13h384zM192 171q-26 0 -45 19t-19 45q0 25 16.5 43t40.5 20h4q21 43 67 43q28 0 49 -18.5t25 -45.5h1q22 0 37.5 -15.5t15.5 -37.5
t-15.5 -37.5t-37.5 -15.5h-139z" />
    <glyph glyph-name="uniE1C8" unicode="signal_cellular_&#x34;_bar" 
d="M43 43l426 426v-426h-426z" />
    <glyph glyph-name="uniE1CD" unicode="signal_cellular_connected_no_internet_&#x34;_bar" 
d="M43 43l426 426v-128h-85v-298h-341zM427 43v42h42v-42h-42zM427 128v171h42v-171h-42z" />
    <glyph glyph-name="uniE1CE" unicode="signal_cellular_no_sim" 
d="M78 429l373 -372l-28 -28l-40 41q-12 -6 -20 -6h-214q-17 0 -29.5 13t-12.5 30v239l-56 56zM405 405v-249l-242 242l50 50h150q17 0 29.5 -13t12.5 -30z" />
    <glyph glyph-name="uniE1CF" unicode="signal_cellular_null" 
d="M469 469v-426h-426zM427 366l-281 -281h281v281z" />
    <glyph glyph-name="uniE1D0" unicode="signal_cellular_off" 
d="M102 416l367 -368l-27 -27l-42 43h-379l189 189l-135 136zM448 491v-367l-183 183z" />
    <glyph glyph-name="uniE1D8" unicode="signal_wifi_&#x34;_bar" 
d="M256 54l-248 309q121 85 248 85t248 -85z" />
    <glyph glyph-name="uniE1D9" unicode="signal_wifi_&#x34;_bar_lock" 
d="M331 203v-56l-75 -94l-247 310l6 5q6 4 12.5 8.5t17.5 11.5t23.5 13t28.5 13.5t34 13t37.5 10.5t42 7.5t45.5 2.5t45.5 -2.5t42 -7.5t37.5 -10.5t34 -13t28.5 -13.5t23.5 -13t17.5 -11.5t12.5 -8.5l6 -5l-44 -56q-6 2 -22 2q-45 0 -75.5 -30.5t-30.5 -75.5zM469 171v32
q0 13 -9.5 22.5t-22.5 9.5t-22.5 -9.5t-9.5 -22.5v-32h64zM491 171q8 0 14.5 -7t6.5 -15v-85q0 -8 -6.5 -14.5t-14.5 -6.5h-107q-8 0 -14.5 6.5t-6.5 14.5v85q0 8 6.5 15t14.5 7v32q0 23 15 38t38 15t38.5 -15.5t15.5 -37.5v-32z" />
    <glyph glyph-name="uniE1DA" unicode="signal_wifi_off" 
d="M70 481q12 -12 153.5 -153t213.5 -215l-27 -27l-71 71l-83 -103l-248 309q33 27 78 47l-43 44zM504 363l-116 -145l-221 220q45 10 89 10q127 0 248 -85z" />
    <glyph glyph-name="uniE1DB" unicode="storage" 
d="M85 277v-42h43v42h-43zM43 213v86h426v-86h-426zM128 363v42h-43v-42h43zM43 427h426v-86h-426v86zM85 149v-42h43v42h-43zM43 85v86h426v-86h-426z" />
    <glyph glyph-name="uniE1E0" unicode="usb" 
d="M320 363h85v-86h-21v-42q0 -18 -12.5 -30.5t-30.5 -12.5h-64v-65q26 -14 26 -42q0 -19 -13.5 -33t-33.5 -14t-33.5 14t-13.5 33q0 28 26 42v65h-64q-18 0 -30.5 12.5t-12.5 30.5v44q-26 14 -26 41q0 20 14 33.5t33 13.5t33 -13.5t14 -33.5q0 -28 -25 -41v-44h64v170h-43
l64 86l64 -86h-43v-170h64v42h-21v86z" />
    <glyph glyph-name="uniE1E1" unicode="wifi_lock" 
d="M469 171v32q0 13 -9.5 22.5t-22.5 9.5t-22.5 -9.5t-9.5 -22.5v-32h64zM491 171q9 0 15 -6.5t6 -15.5v-85q0 -9 -6 -15t-15 -6h-107q-9 0 -15 6t-6 15v85q0 9 6 15.5t15 6.5v32q0 22 15.5 37.5t37.5 15.5t38 -15.5t16 -37.5v-32zM437 309q-44 0 -75 -31t-31 -75v-61
l-75 -99l-256 341q112 85 256 85t256 -85l-57 -76q-6 1 -18 1z" />
    <glyph glyph-name="uniE1E2" unicode="wifi_tethering" 
d="M256 448q88 0 150.5 -62t62.5 -151q0 -58 -28.5 -107.5t-77.5 -77.5l-22 37q39 23 62.5 62.5t23.5 85.5q0 70 -50 120t-121 50t-121 -50t-50 -120q0 -47 23 -86t62 -62l-21 -37q-49 28 -77.5 77.5t-28.5 107.5q0 89 62.5 151t150.5 62zM384 235q0 -35 -17.5 -64.5
t-46.5 -46.5l-21 37q42 25 42 74q0 35 -25 60t-60 25t-60 -25t-25 -60q0 -49 42 -74l-21 -37q-29 17 -46.5 46.5t-17.5 64.5q0 53 37.5 90.5t90.5 37.5t90.5 -37.5t37.5 -90.5zM256 277q17 0 30 -12.5t13 -29.5t-13 -30t-30 -13t-30 13t-13 30t13 29.5t30 12.5z" />
    <glyph glyph-name="uniE1FE" unicode="add_to_home_screen" 
d="M213 192v77l-119 -120l-30 30l119 120h-76v42h149v-149h-43zM384 490q17 0 30 -12.5t13 -29.5v-384q0 -17 -13 -30t-30 -13h-213q-17 0 -30 13t-13 30v64h43v-21h213v298h-213v-21h-43v64q0 17 13 30t30 13z" />
    <glyph glyph-name="uniE1FF" unicode="device_thermostat" 
d="M235 405v-128h42v43h-21v21h21v43h-21v21h21q0 9 -6 15.5t-15 6.5t-15 -6.5t-6 -15.5zM320 235q43 -31 43 -86q0 -44 -31.5 -75t-75.5 -31t-75.5 31t-31.5 75q0 55 43 86v170q0 26 19 45t45 19t45 -19t19 -45v-170z" />
    <glyph glyph-name="uniE200" unicode="mobile_friendly" 
d="M150 225l126 126l27 -27l-154 -153l-81 81l27 27zM405 491q17 0 30 -13t13 -30v-384q0 -17 -13 -30t-30 -13h-213q-17 0 -30 13t-13 30v64h43v-43h213v342h-213v-43h-43v64q0 17 13 30t30 13h213z" />
    <glyph glyph-name="uniE201" unicode="mobile_off" 
d="M363 405h-196l-58 58q10 28 40 28h214q17 0 29.5 -13t12.5 -30v-281l-42 43v195zM149 107h208l-208 207v-207zM59 459l410 -410l-27 -27l-37 37q-2 -16 -14 -27t-28 -11h-214q-17 0 -29.5 13t-12.5 30v293l-75 75z" />
    <glyph glyph-name="uniE202" unicode="signal_cellular_alt" 
d="M235 320h64v-235h-64v235zM107 213h64v-128h-64v128zM363 427h64v-342h-64v342z" />
    <glyph glyph-name="uniE226" unicode="attach_file" 
d="M352 384h32v-245q0 -49 -34 -83.5t-83 -34.5t-83.5 34.5t-34.5 83.5v266q0 35 25.5 60.5t60.5 25.5t60 -25.5t25 -60.5v-224q0 -22 -15.5 -37.5t-37.5 -15.5t-38 15.5t-16 37.5v203h32v-203q0 -9 6.5 -15t15.5 -6t15 6t6 15v224q0 22 -15.5 38t-37.5 16t-38 -16t-16 -38
v-266q0 -35 25.5 -60.5t60.5 -25.5t60 25.5t25 60.5v245z" />
    <glyph glyph-name="uniE227" unicode="attach_money" 
d="M252 279q22 -6 36.5 -12t30.5 -16.5t24.5 -26.5t8.5 -38q0 -31 -20.5 -50.5t-54.5 -25.5v-46h-64v46q-33 7 -54.5 28t-23.5 54h47q4 -45 63 -45q31 0 44.5 11.5t13.5 26.5q0 36 -64 52q-100 23 -100 88q0 29 21 49.5t53 27.5v46h64v-47q33 -8 50.5 -30t18.5 -51h-47
q-2 45 -54 45q-26 0 -41.5 -11t-15.5 -29q0 -29 64 -46z" />
    <glyph glyph-name="uniE228" unicode="border_all" 
d="M405 277v128h-128v-128h128zM405 107v128h-128v-128h128zM235 277v128h-128v-128h128zM235 107v128h-128v-128h128zM64 448h384v-384h-384v384z" />
    <glyph glyph-name="uniE229" unicode="border_bottom" 
d="M107 192v-43h-43v43h43zM64 64v43h384v-43h-384zM107 277v-42h-43v42h43zM405 320v43h43v-43h-43zM405 448h43v-43h-43v43zM107 363v-43h-43v43h43zM405 149v43h43v-43h-43zM405 235v42h43v-42h-43zM363 448v-43h-43v43h43zM277 448v-43h-42v43h42zM363 277v-42h-43v42
h43zM277 363v-43h-42v43h42zM107 448v-43h-43v43h43zM277 277v-42h-42v42h42zM192 448v-43h-43v43h43zM277 192v-43h-42v43h42zM192 277v-42h-43v42h43z" />
    <glyph glyph-name="uniE22A" unicode="border_clear" 
d="M320 405v43h43v-43h-43zM320 235v42h43v-42h-43zM320 64v43h43v-43h-43zM235 405v43h42v-43h-42zM405 448h43v-43h-43v43zM235 320v43h42v-43h-42zM405 320v43h43v-43h-43zM405 64v43h43v-43h-43zM405 235v42h43v-42h-43zM405 149v43h43v-43h-43zM235 235v42h42v-42h-42z
M64 405v43h43v-43h-43zM64 320v43h43v-43h-43zM64 235v42h43v-42h-43zM64 149v43h43v-43h-43zM64 64v43h43v-43h-43zM235 64v43h42v-43h-42zM235 149v43h42v-43h-42zM149 64v43h43v-43h-43zM149 235v42h43v-42h-43zM149 405v43h43v-43h-43z" />
    <glyph glyph-name="uniE22B" unicode="border_color" 
d="M0 85h512v-85h-512v85zM442 426l-42 -42l-80 80l42 42q6 6 15 6t15 -6l50 -50q6 -6 6 -15t-6 -15zM379 363l-214 -214h-80v80l214 214z" />
    <glyph glyph-name="uniE22C" unicode="border_horizontal" 
d="M405 64v43h43v-43h-43zM320 64v43h43v-43h-43zM235 149v43h42v-43h-42zM405 320v43h43v-43h-43zM405 448h43v-43h-43v43zM64 235v42h384v-42h-384zM235 64v43h42v-43h-42zM405 149v43h43v-43h-43zM277 448v-43h-42v43h42zM277 363v-43h-42v43h42zM363 448v-43h-43v43h43z
M192 448v-43h-43v43h43zM107 448v-43h-43v43h43zM149 64v43h43v-43h-43zM64 149v43h43v-43h-43zM107 363v-43h-43v43h43zM64 64v43h43v-43h-43z" />
    <glyph glyph-name="uniE22D" unicode="border_inner" 
d="M405 149v43h43v-43h-43zM405 64v43h43v-43h-43zM277 448v-171h171v-42h-171v-171h-42v171h-171v42h171v171h42zM320 64v43h43v-43h-43zM405 448h43v-43h-43v43zM405 320v43h43v-43h-43zM363 448v-43h-43v43h43zM107 448v-43h-43v43h43zM192 448v-43h-43v43h43zM64 149v43
h43v-43h-43zM107 363v-43h-43v43h43zM149 64v43h43v-43h-43zM64 64v43h43v-43h-43z" />
    <glyph glyph-name="uniE22E" unicode="border_left" 
d="M320 405v43h43v-43h-43zM320 235v42h43v-42h-43zM405 64v43h43v-43h-43zM405 235v42h43v-42h-43zM405 448h43v-43h-43v43zM405 149v43h43v-43h-43zM320 64v43h43v-43h-43zM405 320v43h43v-43h-43zM64 64v384h43v-384h-43zM149 235v42h43v-42h-43zM149 405v43h43v-43h-43z
M149 64v43h43v-43h-43zM235 235v42h42v-42h-42zM235 320v43h42v-43h-42zM235 405v43h42v-43h-42zM235 149v43h42v-43h-42zM235 64v43h42v-43h-42z" />
    <glyph glyph-name="uniE22F" unicode="border_outer" 
d="M192 277v-42h-43v42h43zM277 192v-43h-42v43h42zM405 107v298h-298v-298h298zM64 448h384v-384h-384v384zM363 277v-42h-43v42h43zM277 277v-42h-42v42h42zM277 363v-43h-42v43h42z" />
    <glyph glyph-name="uniE230" unicode="border_right" 
d="M235 320v43h42v-43h-42zM235 405v43h42v-43h-42zM235 235v42h42v-42h-42zM320 405v43h43v-43h-43zM320 64v43h43v-43h-43zM405 448h43v-384h-43v384zM320 235v42h43v-42h-43zM235 149v43h42v-43h-42zM64 320v43h43v-43h-43zM64 149v43h43v-43h-43zM64 235v42h43v-42h-43z
M235 64v43h42v-43h-42zM64 64v43h43v-43h-43zM149 235v42h43v-42h-43zM149 405v43h43v-43h-43zM64 405v43h43v-43h-43zM149 64v43h43v-43h-43z" />
    <glyph glyph-name="uniE231" unicode="border_style" 
d="M405 320v43h43v-43h-43zM64 448h384v-43h-341v-341h-43v384zM405 235v42h43v-42h-43zM405 149v43h43v-43h-43zM235 64v43h42v-43h-42zM149 64v43h43v-43h-43zM405 64v43h43v-43h-43zM320 64v43h43v-43h-43z" />
    <glyph glyph-name="uniE232" unicode="border_top" 
d="M320 235v42h43v-42h-43zM405 64v43h43v-43h-43zM235 320v43h42v-43h-42zM320 64v43h43v-43h-43zM405 149v43h43v-43h-43zM64 448h384v-43h-384v43zM405 235v42h43v-42h-43zM405 320v43h43v-43h-43zM235 149v43h42v-43h-42zM64 320v43h43v-43h-43zM64 235v42h43v-42h-43z
M64 64v43h43v-43h-43zM64 149v43h43v-43h-43zM235 64v43h42v-43h-42zM235 235v42h42v-42h-42zM149 235v42h43v-42h-43zM149 64v43h43v-43h-43z" />
    <glyph glyph-name="uniE233" unicode="border_vertical" 
d="M320 235v42h43v-42h-43zM320 64v43h43v-43h-43zM320 405v43h43v-43h-43zM405 320v43h43v-43h-43zM405 448h43v-43h-43v43zM405 235v42h43v-42h-43zM405 64v43h43v-43h-43zM235 64v384h42v-384h-42zM405 149v43h43v-43h-43zM149 405v43h43v-43h-43zM64 149v43h43v-43h-43z
M64 64v43h43v-43h-43zM64 235v42h43v-42h-43zM149 235v42h43v-42h-43zM149 64v43h43v-43h-43zM64 405v43h43v-43h-43zM64 320v43h43v-43h-43z" />
    <glyph glyph-name="uniE234" unicode="format_align_center" 
d="M64 448h384v-43h-384v43zM149 363h214v-43h-214v43zM64 235v42h384v-42h-384zM64 64v43h384v-43h-384zM149 192h214v-43h-214v43z" />
    <glyph glyph-name="uniE235" unicode="format_align_justify" 
d="M64 448h384v-43h-384v43zM64 320v43h384v-43h-384zM64 235v42h384v-42h-384zM64 149v43h384v-43h-384zM64 64v43h384v-43h-384z" />
    <glyph glyph-name="uniE236" unicode="format_align_left" 
d="M64 448h384v-43h-384v43zM64 64v43h384v-43h-384zM64 235v42h384v-42h-384zM320 363v-43h-256v43h256zM320 192v-43h-256v43h256z" />
    <glyph glyph-name="uniE237" unicode="format_align_right" 
d="M64 448h384v-43h-384v43zM192 320v43h256v-43h-256zM64 235v42h384v-42h-384zM192 149v43h256v-43h-256zM64 64v43h384v-43h-384z" />
    <glyph glyph-name="uniE238" unicode="format_bold" 
d="M288 181q14 0 23 9.5t9 22.5t-9 22.5t-23 9.5h-75v-64h75zM213 373v-64h64q13 0 22.5 9.5t9.5 22.5t-9.5 22.5t-22.5 9.5h-64zM333 282q46 -21 46 -73q0 -34 -22.5 -57.5t-56.5 -23.5h-151v299h134q36 0 60.5 -25t24.5 -61t-35 -59z" />
    <glyph glyph-name="uniE239" unicode="format_clear" 
d="M128 405h299v-64h-124l-34 -80l-45 44l15 36h-51l-60 60v4zM70 405l6 -5l308 -309l-27 -27l-121 121l-33 -78h-64l52 123l-148 148z" />
    <glyph glyph-name="uniE23A" unicode="format_color_fill" 
d="M0 85h512v-85h-512v85zM405 267q43 -47 43 -75q0 -17 -13 -30t-30 -13t-29.5 13t-12.5 30q0 12 10.5 31t20.5 31zM111 299h205l-103 102zM353 321q10 -10 10 -23t-10 -22l-117 -117q-10 -10 -23 -10q-12 0 -22 10l-118 117q-10 9 -10 22t10 23l110 110l-51 51l31 30z" />
    <glyph glyph-name="uniE23B" unicode="format_color_reset" 
d="M112 400l312 -312l-27 -27l-57 56q-37 -32 -84 -32q-53 0 -90.5 37.5t-37.5 90.5q0 34 28 88l-71 71zM384 213q0 -15 -3 -28l-183 184l58 75q14 -16 35.5 -43t57 -88.5t35.5 -99.5z" />
    <glyph glyph-name="uniE23C" unicode="format_color_text" 
d="M205 256h102l-51 135zM235 448h42l117 -299h-48l-23 64h-134l-24 -64h-48zM0 85h512v-85h-512v85z" />
    <glyph glyph-name="uniE23D" unicode="format_indent_decrease" 
d="M235 235v42h213v-42h-213zM235 320v43h213v-43h-213zM64 448h384v-43h-384v43zM64 64v43h384v-43h-384zM64 256l85 85v-170zM235 149v43h213v-43h-213z" />
    <glyph glyph-name="uniE23E" unicode="format_indent_increase" 
d="M235 235v42h213v-42h-213zM235 320v43h213v-43h-213zM64 448h384v-43h-384v43zM235 149v43h213v-43h-213zM64 341l85 -85l-85 -85v170zM64 64v43h384v-43h-384z" />
    <glyph glyph-name="uniE23F" unicode="format_italic" 
d="M213 427h171v-64h-60l-72 -171h47v-64h-171v64h60l72 171h-47v64z" />
    <glyph glyph-name="uniE240" unicode="format_line_spacing" 
d="M213 235v42h256v-42h-256zM213 107v42h256v-42h-256zM213 405h256v-42h-256v42zM128 363v-214h53l-74 -74l-75 74h53v214h-53l75 74l74 -74h-53z" />
    <glyph glyph-name="uniE241" unicode="format_list_bulleted" 
d="M149 405h299v-42h-299v42zM149 235v42h299v-42h-299zM149 107v42h299v-42h-299zM85 160q13 0 22.5 -9.5t9.5 -22.5t-9.5 -22.5t-22.5 -9.5t-22.5 9.5t-9.5 22.5t9.5 22.5t22.5 9.5zM85 416q13 0 22.5 -9t9.5 -23t-9.5 -23t-22.5 -9t-22.5 9t-9.5 23t9.5 23t22.5 9z
M85 288q13 0 22.5 -9t9.5 -23t-9.5 -23t-22.5 -9t-22.5 9t-9.5 23t9.5 23t22.5 9z" />
    <glyph glyph-name="uniE242" unicode="format_list_numbered" 
d="M149 235v42h299v-42h-299zM149 107v42h299v-42h-299zM149 405h299v-42h-299v42zM43 277v22h64v-20l-39 -44h39v-22h-64v20l38 44h-38zM64 341v64h-21v22h42v-86h-21zM43 149v22h64v-86h-64v22h42v10h-21v22h21v10h-42z" />
    <glyph glyph-name="uniE243" unicode="format_paint" 
d="M384 427h64v-171h-171v-192q0 -9 -6 -15t-15 -6h-43q-9 0 -15 6t-6 15v235h213v85h-21v-21q0 -9 -6 -15.5t-15 -6.5h-256q-9 0 -15.5 6.5t-6.5 15.5v85q0 9 6.5 15t15.5 6h256q9 0 15 -6t6 -15v-21z" />
    <glyph glyph-name="uniE244" unicode="format_quote" 
d="M299 149l42 86h-64v128h128v-128l-42 -86h-64zM128 149l43 86h-64v128h128v-128l-43 -86h-64z" />
    <glyph glyph-name="uniE245" unicode="format_size" 
d="M64 256v64h192v-64h-64v-149h-64v149h-64zM192 427h277v-64h-106v-256h-64v256h-107v64z" />
    <glyph glyph-name="uniE246" unicode="format_strikethrough" 
d="M64 213v43h384v-43h-384zM107 427h298v-64h-106v-64h-86v64h-106v64zM213 107v64h86v-64h-86z" />
    <glyph glyph-name="uniE247" unicode="format_textdirection_l_to_r" 
d="M448 128l-85 -85v64h-256v42h256v64zM192 299q-35 0 -60 25t-25 60t25 60t60 25h171v-42h-43v-235h-43v235h-42v-235h-43v107z" />
    <glyph glyph-name="uniE248" unicode="format_textdirection_r_to_l" 
d="M171 149h256v-42h-256v-64l-86 85l86 85v-64zM213 299q-35 0 -60 25t-25 60t25 60t60 25h171v-42h-43v-235h-42v235h-43v-235h-43v107z" />
    <glyph glyph-name="uniE249" unicode="format_underlined" 
d="M107 107h298v-43h-298v43zM256 149q-53 0 -90.5 37.5t-37.5 90.5v171h53v-171q0 -31 22 -52.5t53 -21.5t53 21.5t22 52.5v171h53v-171q0 -53 -37.5 -90.5t-90.5 -37.5z" />
    <glyph glyph-name="uniE24A" unicode="functions" 
d="M384 427v-64h-149l106 -107l-106 -107h149v-64h-256v43l139 128l-139 128v43h256z" />
    <glyph glyph-name="uniE24B" unicode="insert_chart" 
d="M363 149v86h-43v-86h43zM277 149v214h-42v-214h42zM192 149v150h-43v-150h43zM405 448q17 0 30 -13t13 -30v-298q0 -17 -13 -30t-30 -13h-298q-17 0 -30 13t-13 30v298q0 17 13 30t30 13h298z" />
    <glyph glyph-name="uniE24C" unicode="insert_comment" 
d="M384 341v43h-256v-43h256zM384 277v43h-256v-43h256zM384 213v43h-256v-43h256zM427 469q17 0 29.5 -12.5t12.5 -29.5v-384l-85 85h-299q-17 0 -29.5 13t-12.5 30v256q0 17 12.5 29.5t29.5 12.5h342z" />
    <glyph glyph-name="uniE24D" unicode="insert_drive_file" 
d="M277 320h118l-118 117v-117zM128 469h171l128 -128v-256q0 -17 -13 -29.5t-30 -12.5h-256q-17 0 -30 12.5t-13 29.5l1 342q0 17 12.5 29.5t29.5 12.5z" />
    <glyph glyph-name="uniE24E" unicode="insert_emoticon" 
d="M256 139q-37 0 -66.5 20.5t-42.5 53.5h218q-13 -33 -42.5 -53.5t-66.5 -20.5zM181 277q-13 0 -22.5 9.5t-9.5 22.5t9.5 22.5t22.5 9.5t22.5 -9.5t9.5 -22.5t-9.5 -22.5t-22.5 -9.5zM331 277q-13 0 -22.5 9.5t-9.5 22.5t9.5 22.5t22.5 9.5t22.5 -9.5t9.5 -22.5t-9.5 -22.5
t-22.5 -9.5zM256 85q70 0 120.5 50.5t50.5 120.5t-50.5 120.5t-120.5 50.5t-120.5 -50.5t-50.5 -120.5t50.5 -120.5t120.5 -50.5zM256 469q88 0 150.5 -62.5t62.5 -150.5t-62.5 -150.5t-150.5 -62.5t-150.5 62.5t-62.5 150.5t62.5 150.5t150.5 62.5z" />
    <glyph glyph-name="uniE24F" unicode="insert_invitation" 
d="M405 107v234h-298v-234h298zM341 491h43v-43h21q17 0 30 -13t13 -30v-298q0 -17 -13 -30t-30 -13h-298q-18 0 -30.5 13t-12.5 30v298q0 17 12.5 30t30.5 13h21v43h43v-43h170v43zM363 256v-107h-107v107h107z" />
    <glyph glyph-name="uniE250" unicode="insert_link" 
d="M363 363q44 0 75 -31.5t31 -75.5t-31 -75.5t-75 -31.5h-86v41h86q27 0 46.5 19.5t19.5 46.5t-19.5 46.5t-46.5 19.5h-86v41h86zM171 235v42h170v-42h-170zM83 256q0 -27 19.5 -46.5t46.5 -19.5h86v-41h-86q-44 0 -75 31.5t-31 75.5t31 75.5t75 31.5h86v-41h-86
q-27 0 -46.5 -19.5t-19.5 -46.5z" />
    <glyph glyph-name="uniE251" unicode="insert_photo" 
d="M181 224l-74 -96h298l-96 128l-74 -96zM448 107q0 -17 -13 -30t-30 -13h-298q-17 0 -30 13t-13 30v298q0 17 13 30t30 13h298q17 0 30 -13t13 -30v-298z" />
    <glyph glyph-name="uniE252" unicode="merge_type" 
d="M160 341l96 96l96 -96h-75v-136l-128 -128l-30 30l116 115v119h-75zM363 77l-73 72l30 30l73 -72z" />
    <glyph glyph-name="uniE253" unicode="mode_comment" 
d="M469 427v-384l-85 85h-299q-17 0 -29.5 13t-12.5 30v256q0 17 12.5 29.5t29.5 12.5h342q17 0 29.5 -12.5t12.5 -29.5z" />
    <glyph glyph-name="uniE254" unicode="mode_edit" 
d="M442 362l-39 -39l-80 80l39 39q6 6 15 6t15 -6l50 -50q6 -6 6 -15t-6 -15zM64 144l236 236l80 -80l-236 -236h-80v80z" />
    <glyph glyph-name="uniE255" unicode="publish" 
d="M107 213l149 150l149 -150h-85v-128h-128v128h-85zM107 427h298v-43h-298v43z" />
    <glyph glyph-name="uniE256" unicode="space_bar" 
d="M384 320h43v-128h-342v128h43v-85h256v85z" />
    <glyph glyph-name="uniE257" unicode="strikethrough_s" 
d="M200 232q0 -54 62 -54q49 0 49 36q0 16 -6.5 23t-23.5 15q-1 0 -3.5 1t-4.5 2t-4 1h-205v43h384v-43h-83q0 -1 1.5 -3.5t2.5 -3.5q7 -17 7 -35q0 -61 -67 -80q-21 -6 -46 -6q-16 0 -31 3q-36 7 -56 22q-39 29 -39 79h63zM311 352q0 45 -51 45q-36 0 -47 -22q-3 -6 -3 -14
q0 -15 16 -26q16 -10 30 -15h-98q0 1 -2 2.5t-2 2.5q-8 13 -8 36q0 37 32 63q34 24 83 24q53 0 83 -27q31 -28 31 -69h-64z" />
    <glyph glyph-name="uniE258" unicode="vertical_align_bottom" 
d="M85 107h342v-43h-342v43zM341 235l-85 -86l-85 86h64v213h42v-213h64z" />
    <glyph glyph-name="uniE259" unicode="vertical_align_center" 
d="M85 277h342v-42h-342v42zM341 405l-85 -85l-85 85h64v86h42v-86h64zM171 107l85 85l85 -85h-64v-86h-42v86h-64z" />
    <glyph glyph-name="uniE25A" unicode="vertical_align_top" 
d="M85 448h342v-43h-342v43zM171 277l85 86l85 -86h-64v-213h-42v213h-64z" />
    <glyph glyph-name="uniE25B" unicode="wrap_text" 
d="M363 277q35 0 60 -25t25 -60t-25 -60t-60 -25h-43v-43l-64 64l64 64v-43h48q17 0 30 13t13 30t-13 30t-30 13h-283v42h278zM427 405v-42h-342v42h342zM85 107v42h128v-42h-128z" />
    <glyph glyph-name="uniE25C" unicode="money_off" 
d="M114 425l311 -312l-27 -27l-47 48q-19 -17 -52 -24v-46h-64v46q-33 7 -55 28t-24 54h47q4 -45 64 -45q37 0 51 20l-75 74q-83 25 -83 84l-73 73zM267 365q-19 0 -33 -6l-31 31q14 7 32 12v46h64v-47q32 -8 49.5 -30t18.5 -51h-47q-2 45 -53 45z" />
    <glyph glyph-name="uniE25D" unicode="drag_handle" 
d="M85 192v43h342v-43h-342zM427 320v-43h-342v43h342z" />
    <glyph glyph-name="uniE25E" unicode="format_shapes" 
d="M228 240h56l-28 82zM293 213h-75l-15 -42h-35l73 192h30l72 -192h-34zM405 405h43v43h-43v-43zM448 64v43h-43v-43h43zM363 107v42h42v214h-42v42h-214v-42h-42v-214h42v-42h214zM107 64v43h-43v-43h43zM64 448v-43h43v43h-43zM491 363h-43v-214h43v-128h-128v43h-214
v-43h-128v128h43v214h-43v128h128v-43h214v43h128v-128z" />
    <glyph glyph-name="uniE25F" unicode="highlight" 
d="M362 372l45 45l30 -30l-45 -46zM75 387l30 30l45 -45l-30 -31zM235 469h42v-64h-42v64zM128 213v107h256v-107l-64 -64v-106h-128v106z" />
    <glyph glyph-name="uniE260" unicode="linear_scale" 
d="M416 309q22 0 37.5 -15.5t15.5 -37.5t-15.5 -37.5t-37.5 -15.5q-36 0 -49 32h-62q-13 -32 -49 -32t-49 32h-62q-13 -32 -49 -32q-22 0 -37.5 15.5t-15.5 37.5t15.5 37.5t37.5 15.5q36 0 49 -32h62q13 32 49 32t49 -32h62q13 32 49 32z" />
    <glyph glyph-name="uniE261" unicode="short_text" 
d="M85 235h214v-43h-214v43zM85 320h342v-43h-342v43z" />
    <glyph glyph-name="uniE262" unicode="text_fields" 
d="M459 320v-64h-64v-149h-64v149h-64v64h192zM53 427h278v-64h-107v-256h-64v256h-107v64z" />
    <glyph glyph-name="uniE263" unicode="monetization_on" 
d="M286 126q67 13 67 67q0 61 -90 84q-56 14 -56 41q0 15 13.5 25t37.5 10q45 0 47 -40h42q-2 57 -61 72v42h-57v-42q-29 -6 -47.5 -23.5t-18.5 -44.5q0 -56 89 -78q57 -13 57 -46q0 -13 -11.5 -23.5t-39.5 -10.5q-53 0 -57 40h-42q3 -57 70 -72v-42h57v41zM256 469
q88 0 150.5 -62.5t62.5 -150.5t-62.5 -150.5t-150.5 -62.5t-150.5 62.5t-62.5 150.5t62.5 150.5t150.5 62.5z" />
    <glyph glyph-name="uniE264" unicode="title" 
d="M107 427h298v-64h-117v-256h-64v256h-117v64z" />
    <glyph glyph-name="uniE265" unicode="table_chart" 
d="M64 107v192h107v-235h-64q-17 0 -30 13t-13 30zM427 448q17 0 29.5 -13t12.5 -30v-64h-405v64q0 17 13 30t30 13h320zM363 64v235h106v-192q0 -17 -12.5 -30t-29.5 -13h-64zM213 298h107v-234h-107v234z" />
    <glyph glyph-name="uniE266" unicode="add_comment" 
d="M363 277v43h-86v85h-42v-85h-86v-43h86v-85h42v85h86zM469 427v-384l-85 85h-299q-17 0 -29.5 13t-12.5 30v256q0 17 12.5 29.5t29.5 12.5h342q17 0 29.5 -12.5t12.5 -29.5z" />
    <glyph glyph-name="uniE267" unicode="format_list_numbered_rtl" 
d="M43 277h298v-42h-298v42zM43 149h298v-42h-298v42zM43 405h298v-42h-298v42zM384 277v22h64v-20l-38 -44h38v-22h-64v20l38 44h-38zM405 341v64h-21v22h43v-86h-22zM384 149v22h64v-86h-64v22h43v10h-22v22h22v10h-43z" />
    <glyph glyph-name="uniE268" unicode="scatter_plot" 
d="M290 137q0 26 19 45t45 19t45 -19t19 -45t-19 -45t-45 -19t-45 19t-19 45zM171 384q0 26 19 45t45 19t45 -19t19 -45t-19 -45t-45 -19t-45 19t-19 45zM85 213q0 26 19 45t45 19t45 -19t19 -45t-19 -45t-45 -19t-45 19t-19 45z" />
    <glyph glyph-name="uniE269" unicode="score" 
d="M405 235v53l-128 -128l-85 85l-85 -85v-53l85 85l85 -85zM149 357v-80h86v32h-54v16h54v80h-86v-32h54v-16h-54zM256 405v-128h32v64l43 -64h36l-43 64l43 64h-36l-43 -64v64h-32zM405 448q17 0 30 -13t13 -30v-298q0 -17 -13 -30t-30 -13h-298q-17 0 -30 13t-13 30v298
q0 17 13 30t30 13h298z" />
    <glyph glyph-name="uniE26A" unicode="insert_chart_outlined" 
d="M416 448q17 0 30 -13t13 -30v-298q0 -17 -13 -30t-30 -13h-320q-17 0 -30 13t-13 30v298q0 17 13 30t30 13h320zM416 105v300h-320v-300h320zM363 149h-43v86h43v-86zM277 149h-42v214h42v-214zM192 149h-43v150h43v-150z" />
    <glyph glyph-name="uniE26B" unicode="bar_chart" 
d="M346 235h59v-128h-59v128zM226 405h60v-298h-60v298zM107 316h64v-209h-64v209z" />
    <glyph glyph-name="uniE26C" unicode="notes" 
d="M64 235v42h384v-42h-384zM64 384h384v-43h-384v43zM64 128v43h256v-43h-256z" />
    <glyph glyph-name="uniE2BC" unicode="attachment" 
d="M43 245q0 49 34 83.5t83 34.5h224q35 0 60 -25.5t25 -60.5t-25 -60t-60 -25h-181q-22 0 -38 15.5t-16 37.5t16 38t38 16h160v-43h-162q-9 0 -9 -10.5t9 -10.5h183q17 0 30 12.5t13 29.5t-13 30t-30 13h-224q-31 0 -53 -22t-22 -53t22 -52.5t53 -21.5h203v-43h-203
q-49 0 -83 34t-34 83z" />
    <glyph glyph-name="uniE2BD" unicode="cloud" 
d="M413 298q41 -3 70 -33.5t29 -72.5q0 -44 -31.5 -75.5t-75.5 -31.5h-277q-53 0 -90.5 37.5t-37.5 90.5q0 49 33 85.5t81 41.5q21 39 59 63t83 24q58 0 102 -36.5t55 -92.5z" />
    <glyph glyph-name="uniE2BE" unicode="cloud_circle" 
d="M352 171q22 0 37.5 15.5t15.5 37.5t-15.5 37.5t-37.5 15.5h-11q0 35 -25 60.5t-60 25.5q-30 0 -52.5 -18.5t-29.5 -46.5l-3 1q-26 0 -45 -19t-19 -45t19 -45t45 -19h181zM256 469q88 0 150.5 -62.5t62.5 -150.5t-62.5 -150.5t-150.5 -62.5t-150.5 62.5t-62.5 150.5
t62.5 150.5t150.5 62.5z" />
    <glyph glyph-name="uniE2BF" unicode="cloud_done" 
d="M213 149l141 141l-30 30l-111 -110l-44 44l-30 -30zM413 298q41 -3 70 -33.5t29 -72.5q0 -44 -31.5 -75.5t-75.5 -31.5h-277q-53 0 -90.5 37.5t-37.5 90.5q0 49 33 85.5t81 41.5q21 39 59 63t83 24q58 0 102 -36.5t55 -92.5z" />
    <glyph glyph-name="uniE2C0" unicode="cloud_download" 
d="M363 235h-64v85h-86v-85h-64l107 -107zM413 298q41 -3 70 -33.5t29 -72.5q0 -44 -31.5 -75.5t-75.5 -31.5h-277q-53 0 -90.5 37.5t-37.5 90.5q0 49 33 85.5t81 41.5q21 39 59 63t83 24q58 0 102 -36.5t55 -92.5z" />
    <glyph glyph-name="uniE2C1" unicode="cloud_off" 
d="M165 299h-37q-35 0 -60 -25.5t-25 -60.5t25 -60t60 -25h208zM64 400l27 27l357 -357l-27 -27l-43 42h-250q-53 0 -90.5 37.5t-37.5 90.5q0 52 36 89t87 39zM413 298q41 -3 70 -33.5t29 -72.5q0 -55 -45 -87l-31 31q33 18 33 56q0 26 -19 45t-45 19h-32v11q0 49 -34 83
t-83 34q-31 0 -54 -13l-32 31q39 25 86 25q58 0 102 -36.5t55 -92.5z" />
    <glyph glyph-name="uniE2C2" unicode="cloud_queue" 
d="M405 128q26 0 45 19t19 45t-19 45t-45 19h-32v11q0 49 -34 83t-83 34q-40 0 -71 -24t-42 -61h-15q-35 0 -60 -25.5t-25 -60.5t25 -60t60 -25h277zM413 298q41 -3 70 -33.5t29 -72.5q0 -44 -31.5 -75.5t-75.5 -31.5h-277q-53 0 -90.5 37.5t-37.5 90.5q0 49 33 85.5
t81 41.5q21 39 59 63t83 24q58 0 102 -36.5t55 -92.5z" />
    <glyph glyph-name="uniE2C3" unicode="cloud_upload" 
d="M299 235h64l-107 106l-107 -106h64v-86h86v86zM413 298q41 -3 70 -33.5t29 -72.5q0 -44 -31.5 -75.5t-75.5 -31.5h-277q-53 0 -90.5 37.5t-37.5 90.5q0 49 33 85.5t81 41.5q21 39 59 63t83 24q58 0 102 -36.5t55 -92.5z" />
    <glyph glyph-name="uniE2C4" unicode="file_download" 
d="M107 128h298v-43h-298v43zM405 320l-149 -149l-149 149h85v128h128v-128h85z" />
    <glyph glyph-name="uniE2C6" unicode="file_upload" 
d="M107 128h298v-43h-298v43zM192 171v128h-85l149 149l149 -149h-85v-128h-128z" />
    <glyph glyph-name="uniE2C7" unicode="folder" 
d="M213 427l43 -43h171q17 0 29.5 -13t12.5 -30v-213q0 -17 -12.5 -30t-29.5 -13h-342q-17 0 -29.5 13t-12.5 30v256q0 17 12.5 30t29.5 13h128z" />
    <glyph glyph-name="uniE2C8" unicode="folder_open" 
d="M427 128v213h-342v-213h342zM427 384q17 0 29.5 -13t12.5 -30v-213q0 -17 -12.5 -30t-29.5 -13h-342q-17 0 -29.5 13t-12.5 30v256q0 17 12.5 30t29.5 13h128l43 -43h171z" />
    <glyph glyph-name="uniE2C9" unicode="folder_shared" 
d="M405 149v22q0 19 -29.5 30.5t-55.5 11.5t-55.5 -11.5t-29.5 -30.5v-22h170zM320 320q-17 0 -30 -13t-13 -30t13 -29.5t30 -12.5t30 12.5t13 29.5t-13 30t-30 13zM427 384q17 0 29.5 -13t12.5 -30v-213q0 -17 -12.5 -30t-29.5 -13h-342q-17 0 -29.5 13t-12.5 30v256
q0 17 12.5 30t29.5 13h128l43 -43h171z" />
    <glyph glyph-name="uniE2CC" unicode="create_new_folder" 
d="M405 213v43h-64v64h-42v-64h-64v-43h64v-64h42v64h64zM427 384q18 0 30 -12.5t12 -30.5v-213q0 -18 -12 -30.5t-30 -12.5h-342q-18 0 -30 12.5t-12 30.5v256q0 18 12 30.5t30 12.5h128l43 -43h171z" />
    <glyph glyph-name="uniE307" unicode="cast" 
d="M21 299q97 0 166 -69t69 -166h-43q0 80 -56.5 136t-135.5 56v43zM21 213q62 0 106 -43.5t44 -105.5h-43q0 44 -31.5 75.5t-75.5 31.5v42zM21 128q26 0 45 -19t19 -45h-64v64zM448 448q17 0 30 -13t13 -30v-298q0 -17 -13 -30t-30 -13h-149v43h149v298h-384v-64h-43v64
q0 17 13 30t30 13h384z" />
    <glyph glyph-name="uniE308" unicode="cast_connected" 
d="M448 448q17 0 30 -13t13 -30v-298q0 -17 -13 -30t-30 -13h-149v43h149v298h-384v-64h-43v64q0 17 13 30t30 13h384zM21 299q97 0 166 -69t69 -166h-43q0 80 -56.5 136t-135.5 56v43zM405 363v-214h-120q-20 63 -67.5 111t-110.5 68v35h298zM21 213q62 0 106 -43.5
t44 -105.5h-43q0 44 -31.5 75.5t-75.5 31.5v42zM21 128q26 0 45 -19t19 -45h-64v64z" />
    <glyph glyph-name="uniE30A" unicode="computer" 
d="M85 384v-213h342v213h-342zM427 128h85v-43h-512v43h85q-17 0 -29.5 13t-12.5 30v213q0 17 12.5 30t29.5 13h342q17 0 29.5 -13t12.5 -30v-213q0 -17 -12.5 -30t-29.5 -13z" />
    <glyph glyph-name="uniE30B" unicode="desktop_mac" 
d="M448 213v214h-384v-214h384zM448 469q17 0 30 -12.5t13 -29.5v-256q0 -17 -13 -30t-30 -13h-149l42 -64v-21h-170v21l42 64h-149q-17 0 -30 13t-13 30v256q0 17 13 29.5t30 12.5h384z" />
    <glyph glyph-name="uniE30C" unicode="desktop_windows" 
d="M448 171v256h-384v-256h384zM448 469q17 0 30 -12.5t13 -29.5v-256q0 -17 -13 -30t-30 -13h-149v-43h42v-42h-170v42h42v43h-149q-17 0 -30 13t-13 30v256q0 17 13 29.5t30 12.5h384z" />
    <glyph glyph-name="uniE30D" unicode="developer_board" 
d="M256 277h85v-128h-85v128zM128 363h107v-107h-107v107zM256 363h85v-64h-85v64zM128 235h107v-86h-107v86zM384 107v298h-299v-298h299zM469 320h-42v-43h42v-42h-42v-43h42v-43h-42v-42q0 -17 -13 -30t-30 -13h-299q-17 0 -29.5 13t-12.5 30v298q0 17 12.5 30t29.5 13
h299q17 0 30 -13t13 -30v-42h42v-43z" />
    <glyph glyph-name="uniE30E" unicode="dock" 
d="M341 192v213h-170v-213h170zM341 490q17 0 30 -12.5t13 -29.5v-299q0 -17 -13 -29.5t-30 -12.5h-170q-17 0 -30 12.5t-13 29.5v299q0 17 13 30t30 13zM171 21v43h170v-43h-170z" />
    <glyph glyph-name="uniE30F" unicode="gamepad" 
d="M352 320h117v-128h-117l-64 64zM192 160l64 64l64 -64v-117h-128v117zM160 320l64 -64l-64 -64h-117v128h117zM320 352l-64 -64l-64 64v117h128v-117z" />
    <glyph glyph-name="uniE310" unicode="headset" 
d="M256 491q80 0 136 -56.5t56 -135.5v-150q0 -26 -19 -45t-45 -19h-64v171h85v43q0 62 -43.5 105.5t-105.5 43.5t-105.5 -43.5t-43.5 -105.5v-43h85v-171h-64q-26 0 -45 19t-19 45v150q0 79 56 135.5t136 56.5z" />
    <glyph glyph-name="uniE311" unicode="headset_mic" 
d="M256 491q80 0 136 -56.5t56 -135.5v-214q0 -26 -19 -45t-45 -19h-128v43h149v21h-85v171h85v43q0 62 -43.5 105.5t-105.5 43.5t-105.5 -43.5t-43.5 -105.5v-43h85v-171h-64q-26 0 -45 19t-19 45v150q0 79 56 135.5t136 56.5z" />
    <glyph glyph-name="uniE312" unicode="keyboard" 
d="M405 299v42h-42v-42h42zM405 235v42h-42v-42h42zM341 299v42h-42v-42h42zM341 235v42h-42v-42h42zM341 149v43h-170v-43h170zM149 299v42h-42v-42h42zM149 235v42h-42v-42h42zM171 277v-42h42v42h-42zM171 341v-42h42v42h-42zM235 277v-42h42v42h-42zM235 341v-42h42v42
h-42zM427 405q17 0 29.5 -12.5t12.5 -29.5v-214q0 -17 -12.5 -29.5t-29.5 -12.5h-342q-17 0 -29.5 12.5t-12.5 29.5v214q0 17 12.5 29.5t29.5 12.5h342z" />
    <glyph glyph-name="uniE313" unicode="keyboard_arrow_down" 
d="M158 345l98 -98l98 98l30 -30l-128 -128l-128 128z" />
    <glyph glyph-name="uniE314" unicode="keyboard_arrow_left" 
d="M329 169l-30 -30l-128 128l128 128l30 -30l-98 -98z" />
    <glyph glyph-name="uniE315" unicode="keyboard_arrow_right" 
d="M183 163l98 98l-98 98l30 30l128 -128l-128 -128z" />
    <glyph glyph-name="uniE316" unicode="keyboard_arrow_up" 
d="M158 183l-30 30l128 128l128 -128l-30 -30l-98 98z" />
    <glyph glyph-name="uniE317" unicode="keyboard_backspace" 
d="M448 277v-42h-302l76 -77l-30 -30l-128 128l128 128l30 -30l-76 -77h302z" />
    <glyph glyph-name="uniE318" unicode="keyboard_capslock" 
d="M128 128v43h256v-43h-256zM256 333l-98 -98l-30 30l128 128l128 -128l-30 -30z" />
    <glyph glyph-name="uniE31A" unicode="keyboard_hide" 
d="M256 21l-85 86h170zM405 341v43h-42v-43h42zM405 277v43h-42v-43h42zM341 341v43h-42v-43h42zM341 277v43h-42v-43h42zM341 192v43h-170v-43h170zM149 341v43h-42v-43h42zM149 277v43h-42v-43h42zM171 320v-43h42v43h-42zM171 384v-43h42v43h-42zM235 320v-43h42v43h-42z
M235 384v-43h42v43h-42zM427 448q17 0 29.5 -13t12.5 -30v-213q0 -17 -12.5 -30t-29.5 -13h-342q-17 0 -29.5 13t-12.5 30v213q0 17 12.5 30t29.5 13h342z" />
    <glyph glyph-name="uniE31B" unicode="keyboard_return" 
d="M405 363h43v-128h-324l77 -77l-30 -30l-128 128l128 128l30 -30l-77 -77h281v86z" />
    <glyph glyph-name="uniE31C" unicode="keyboard_tab" 
d="M427 384h42v-256h-42v256zM247 354l30 30l128 -128l-128 -128l-30 30l77 77h-303v42h303z" />
    <glyph glyph-name="uniE31D" unicode="keyboard_voice" 
d="M369 256h36q0 -54 -37.5 -94.5t-90.5 -48.5v-70h-42v70q-53 8 -90.5 48.5t-37.5 94.5h36q0 -47 33.5 -78t79.5 -31t79.5 31t33.5 78zM256 192q-26 0 -45 19t-19 45v128q0 26 19 45t45 19t45 -19t19 -45v-128q0 -26 -19 -45t-45 -19z" />
    <glyph glyph-name="uniE31E" unicode="laptop" 
d="M85 384v-213h342v213h-342zM427 128h85v-43h-512v43h85q-17 0 -29.5 13t-12.5 30v213q0 17 12.5 30t29.5 13h342q17 0 29.5 -13t12.5 -30v-213q0 -17 -12.5 -30t-29.5 -13z" />
    </font>
</defs>
</svg>
